<?xml version="1.0" standalone="no"?>
<!DOCTYPE svg PUBLIC "-//W3C//DTD SVG 1.1//EN" "http://www.w3.org/Graphics/SVG/1.1/DTD/svg11.dtd">
<svg xmlns="http://www.w3.org/2000/svg">
<metadata>Copyright (C) 2016 by original authors @ fontello.com</metadata>
<defs>
<font id="zuub" horiz-adv-x="1000" >
<font-face font-family="zuub" font-weight="400" font-stretch="normal" units-per-em="1000" ascent="850" descent="-150" />
<missing-glyph horiz-adv-x="1000" />
<glyph glyph-name="arrow-down" unicode="&#xe800;" d="M645 154l325 308c19 18 30 43 30 69 0 26-11 51-30 68-41 38-104 38-144 0l-326-308-325 308c-41 38-104 38-145 0-19-17-30-42-30-68 0-26 11-51 30-69l325-308 72-68c0-1 73-69 73-69l72 68 73 69 0 0 0 0z" horiz-adv-x="1000" />

<glyph glyph-name="arrow-next" unicode="&#xe801;" d="M696 205l-308-325c-18-19-43-30-69-30-26 0-51 11-68 30-38 41-38 104 0 144l308 326-308 325c-38 41-38 104 0 145 17 19 42 30 68 30 26 0 51-11 69-30l308-325 69-72c0 0 68-73 68-73l-68-72-69-73z" horiz-adv-x="1000" />

<glyph glyph-name="arrow-prev" unicode="&#xe802;" d="M359 205l309-325c18-19 42-30 68-30 26 0 51 11 69 30 38 41 38 104 0 144l-308 326 308 325c38 41 38 104 0 145-18 19-43 30-69 30-26 0-50-11-68-30l-309-325-68-72c0 0-69-73-69-73l69-72 68-73 0 0z" horiz-adv-x="1000" />

<glyph glyph-name="arrow-up" unicode="&#xe803;" d="M645 491l325-309c19-17 30-42 30-68 0-26-11-51-30-69-41-38-104-38-144 0l-326 309-325-309c-41-38-104-38-145 0-19 18-30 43-30 69 0 26 11 51 30 68l325 309 72 68c0 0 73 69 73 69l72-69 73-68 0 0z" horiz-adv-x="1000" />

<glyph glyph-name="chevron-down" unicode="&#xe804;" d="M1000 490l-117 110-383-363-383 363-117-110 500-473z" horiz-adv-x="1000" />

<glyph glyph-name="chevron-left" unicode="&#xe805;" d="M723 850l110-117-362-383 362-383-110-117-473 500z" horiz-adv-x="1000" />

<glyph glyph-name="chevron-right" unicode="&#xe806;" d="M360 850l-110-117 363-383-363-383 110-117 473 500z" horiz-adv-x="1000" />

<glyph glyph-name="chevron-up" unicode="&#xe807;" d="M1000 127l-117-110-383 362-383-362-117 110 500 473 500-473z" horiz-adv-x="1000" />

<glyph glyph-name="close" unicode="&#xe808;" d="M982 831c-11 12-27 19-44 19-16 0-32-7-44-19l-394-393-394 394c-12 11-28 18-44 18-16 0-32-7-44-18-24-25-24-64 0-88l395-394-395-394c-17-18-23-44-13-67 9-24 32-39 57-39 16 0 32 7 44 18l394 394 394-394c11-11 27-18 43-18 17 0 33 6 44 18 12 12 19 28 19 44 0 17-7 33-19 44l-393 394 394 394c24 24 24 63 0 87l0 0z" horiz-adv-x="1000" />

<glyph glyph-name="files" unicode="&#xe809;" d="M288 483c-5 0-9-4-11-8l-236-584 0-20c0-15-1-21 12-21l922 0c23 0 43 15 50 37l211 576 0 20-948 0 0 0 0 0z m0 0l-26 41 850 0 0 128c0 31-26 56-56 56l-510 0-103 142-387 0c-14 0-29-6-39-16-11-10-17-24-17-39l0-854 212 546c7 22 27 37 50 37l0 0 26-41 0 0z" horiz-adv-x="1235" />

<glyph glyph-name="location" unicode="&#xe80a;" d="M144 536c-2 83 46 161 123 194 77 34 166 18 227-40 60-59 78-148 47-226-32-78-107-129-191-129-54 0-106 20-144 58-39 37-61 89-62 143l0 0 0 0z m-144-25c0-84 105-261 105-261l245-400 232 400c0 0 118 178 118 261-6 189-161 339-350 339-189 0-344-150-350-339l0 0 0 0z" horiz-adv-x="700" />

<glyph glyph-name="magnifier" unicode="&#xe80b;" d="M411 170c-108 0-206 66-248 166-42 101-19 216 58 293 77 77 193 100 293 58 100-41 166-139 166-248 0-71-28-140-79-190-50-50-119-79-190-79l0 0z m565-177l-218 217c-1 1-2 2-3 3 116 176 79 411-84 545-164 133-401 121-551-28-149-149-161-387-28-551 134-163 369-200 545-84 1-1 2-2 3-3l217-218c21-21 52-29 81-21 29 7 51 30 59 59 8 29 0 59-21 81l0 0z" horiz-adv-x="1000" />

<glyph glyph-name="play" unicode="&#xe80c;" d="M500 850c-276 0-500-224-500-500 0-276 224-500 500-500 276 0 500 224 500 500 0 276-224 500-500 500l0 0 0 0z m173-526l-250-157c-5-3-11-4-17-4-8 0-16 3-22 9-6 6-9 14-9 22l0 312c0 12 6 22 16 28 10 5 22 5 32-1l250-156c9-6 15-16 15-27 0-11-6-21-15-26l0 0 0 0z" horiz-adv-x="1000" />

<glyph glyph-name="prexpert-sm" unicode="&#xe80d;" d="M192 119l270 462 384 0-423-462-231 0 0 0 0 0z m693-269l-770 0c-63 0-115 52-115 115l0 770c0 63 52 115 115 115l539 0-39-77-500 0c-21 0-38-17-38-38l0-770c0-21 17-38 38-38l770 0c21 0 38 17 38 38l0 770c0 21-17 38-38 38l-39 0 39 77c63 0 115-52 115-115l0-770c0-30-12-60-34-81-21-22-51-34-81-34l0 0 0 0z" horiz-adv-x="1000" />

<glyph glyph-name="reviews" unicode="&#xe80e;" d="M605-150c-7 0-14 1-20 4-18 8-30 26-30 46l0 198-439 0c-64 0-116 53-116 117l0 518c0 64 52 117 116 117l818 0c64 0 116-53 116-117l0-518c0-64-52-117-116-117l-105 0-190-234c-9-9-22-14-34-14l0 0z m-489 900c-9 0-16-8-16-17l0-518c0-9 7-16 16-17l489 0c13 0 25-5 35-14 9-10 14-22 14-36l0-130 120 166c9 9 22 14 35 14l125 0c9 0 16 8 17 17l0 518c-1 9-8 17-17 17l-818 0 0 0z" horiz-adv-x="1050" />

<glyph glyph-name="safety" unicode="&#xe80f;" d="M500-150c-276 0-500 224-500 500 0 276 224 500 500 500 276 0 500-224 500-500 0-276-224-500-500-500l0 0z m0 960c-254 0-460-206-460-460 0-254 206-460 460-460 254 0 460 206 460 460 0 254-206 460-460 460l0 0z m367-327l-87 0c-7 0-13 6-13 13 0 7 6 12 13 12l87 0c7 0 13-5 13-12 0-7-6-13-13-13l0 0z m-127 35c-4-4-9-5-14-3-4 2-8 6-8 12 0 3 2 6 4 9l62 61c5 5 13 5 18 0 2-2 3-5 3-9 0-3-1-6-3-8l-62-62z m-39 45c-7 0-13 5-13 12l0 88c0 7 6 12 13 12 7 0 12-5 12-12l0-88c0-7-5-12-12-12l0 0z m6-255c-8-18-13-37-15-57 0-50-6-213-80-213-53 0-66 56-76 101-10 44-18 71-41 71-25 0-35-31-48-79-11-44-25-94-68-94-63 0-80 135-80 214-2 20-7 39-15 57-10 25-17 51-21 77-39 27-85 73-85 139 0 33 22 63 54 73 32 10 67-1 86-29 19 27 54 39 86 29 31-10 53-39 53-73 0-6 0-12-1-18 12-4 25-7 38-7 21 1 43 6 63 14 45 15 97 32 149-39 41-54 18-117 1-166l0 0z m-327 268c-23-1-44-17-50-40-1-6-6-11-12-10-6 0-11 4-12 9-6 26-30 43-56 40-27-3-46-25-47-51 0-83 93-132 115-143 23 11 114 59 114 143 0 14-6 27-15 37-10 9-23 15-37 15l0 0z m305-116c-41 55-74 44-121 29-22-9-46-14-71-15-14 0-29 3-43 7-27-83-122-123-127-125-3-1-6-1-9 0-8 3-16 7-23 11 5-17 10-34 16-50 9-21 15-43 17-66 0-104 25-189 55-189 22 0 32 30 44 76 13 46 26 97 72 97 45 0 55-48 65-91 11-49 21-81 51-81 32 0 56 79 56 188 2 22 7 44 16 65 17 47 35 99 3 144l-1 0z" horiz-adv-x="1000" />

<glyph glyph-name="technologies" unicode="&#xe810;" d="M730-94c-13-7-26-13-40-19-31-12-63-22-95-28-10-2-20-4-30-5-22-3-43-4-65-5-22 1-44 2-65 5-10 2-20 3-30 5-33 6-64 16-95 28-14 6-27 12-40 19-205 106-310 338-256 562 55 224 256 382 486 382 231 0 431-158 486-382 54-224-51-456-256-562l0 0z m-230-16c23 0 45 2 68 5 2 47-3 90-22 115-11 15-28 22-46 22-18 1-36-8-47-22-18-25-23-69-22-115 23-3 46-5 69-5l0 0z m-212 52c36-19 74-33 114-42-4 44 6 89 28 127 17 22 43 35 70 34 27 1 53-12 69-33 23-39 33-83 28-128 40 9 79 23 116 42 23 75 35 152 35 230 0 2 1 4 1 5l66 205c14 46 6 97-23 136-29 40-75 63-124 63l-3 0c-30 0-58-16-74-42-19-32-54-51-91-51-37 0-72 19-91 51-16 26-44 42-74 42l-3 0c-83 0-151-66-153-149-1-17 2-34 7-50l63-198c33-12 67-21 102-27l-32 80c-3 7 1 16 8 19 8 3 16-1 19-8l38-97c39-6 77-9 116-9 38 0 76 3 114 9l38 97c2 4 6 8 11 9 6 0 11-2 14-6 3-4 4-9 2-14l-32-81 22 5c7 1 15-4 17-11 1-8-3-16-11-18-140-32-286-25-423 20 2-71 14-142 36-210l0 0z m212 868c-204 0-384-134-441-330-58-196 20-406 192-517-18 68-28 138-28 207l-65 203c-18 56-7 116 27 163 35 47 90 74 148 74l2 0c40 0 78-22 98-56 15-23 40-37 67-37 27 0 52 14 66 37 21 34 59 56 99 56l3 0c58 0 113-28 147-74 34-47 45-107 27-163l-65-203c0-69-10-139-28-207 172 111 250 321 192 517-57 196-237 330-441 330l0 0z m159-497c0 0 0 0-1-1 0 0 0 0 0 0 0-1 0-1 0-2l0 0c0 0-1-1-1-1 0-1 0-1 0-1l-72-125 0 0c0 0-1-1-1-1l0 0c0-1-1-1-1-1 0-1 0-1 0-1-1 0-1 0-1-1 0 0-1 0-1 0 0 0-1-1-1-1l0 0-2-1c0 0-1 0-1 0 0 0 0 0-1 0 0 0-1-1-1-1l0 0c-1 0-2 0-2 0l-144 0c-1 0-2 0-2 0l0 0c-1 0-2 1-2 1 0 0 0 0-1 0 0 0-1 0-1 0l-1 1 0 0c-1 0-1 1-2 1 0 0 0 0 0 0-1 1-1 1-1 1 0 0-1 0-1 1 0 0 0 0-1 1l0 0c0 0 0 1-1 1l0 0-72 125c0 0 0 0 0 1 0 0 0 1-1 1l0 0c0 1 0 1 0 2 0 0 0 0 0 0 0 1 0 1 0 1 0 0 0 1 0 1l0 2c0 0 0 1 0 1l0 1c0 0 0 1 0 1l0 1c0 0 0 1 0 1l0 0c1 1 1 1 1 2l0 0 72 125 0 0c1 0 1 1 1 1l0 1c1 0 1 0 1 1 1 0 1 0 1 0l1 1c0 0 0 0 0 0 0 0 1 1 2 1l1 1c0 0 0 0 0 0 1 0 1 0 2 1l0 0c1 0 1 0 2 0l0 0c0 0 1 0 2 0l144 0c1 0 1 0 2 0l0 0c1 0 1 0 2 0l0 0c0-1 1-1 1-1 1 0 1 0 1 0l1-1c1 0 1 0 2-1 0 0 0 0 0 0 0 0 1-1 1-1 0 0 0 0 0 0 1-1 1-1 2-2l0 0c0 0 0-1 0-1l0 0 73-125 0 0c0-1 0-1 0-2l0 0c1 0 1-1 1-1 0-1 0-1 0-1 0 0 0-1 0-1 0 0 0-1 0-1 0 0 0-1 0-1l0-2 0-1z m-112-108l-17 30-60 0-17-30 94 0 0 0z m-119 15l17 30-30 51-34 0 47-81z m0 191l-47-81 34 0 30 52-17 29z m25 15l17-30 60 0 17 30-94 0 0 0z m119-15l-17-29 30-52 34 0-47 81z m13-110l-6-11c-4-7-13-9-20-5-7 4-10 13-6 20l7 11-30 51-60 0-29-51 29-52 69 0c0 0 0 0 1 0l1 0c0 0 0 0 1 0l0 0c1-1 1-1 1-1l1 0c0 0 0 0 0 0 1 0 1 0 1-1 0 0 0 0 1 0 0 0 0 0 0 0 0-1 0-1 1-1 0 0 0 0 0 0 1 0 1 0 1 0l0-1c1 0 1 0 1 0l0-1c1 0 1 0 1-1 0 0 0 0 0 0 0 0 0-1 1-1 0 0 0 0 0 0l21-37 47 81-34 0 0 0z" horiz-adv-x="1000" />

<glyph glyph-name="view-list" unicode="&#xe811;" d="M0 650l200 0 0-200-200 0 0 200 0 0 0 0z m0-300l200 0 0-200-200 0 0 200 0 0 0 0z m0-300l200 0 0-200-200 0 0 200 0 0 0 0z m300 600l500 0 0-200-500 0 0 200 0 0 0 0z m0-300l500 0 0-200-500 0 0 200 0 0 0 0z m0-300l500 0 0-200-500 0 0 200 0 0 0 0z" horiz-adv-x="800" />

<glyph glyph-name="view-map" unicode="&#xe812;" d="M194 536c-2 83 46 161 123 194 77 34 166 18 227-40 60-59 78-148 47-226-32-78-107-129-191-129-54 0-106 20-144 58-39 37-61 89-62 143l0 0 0 0z m-144-25c0-84 105-261 105-261l245-400 232 400c0 0 118 178 118 261-6 189-161 339-350 339-189 0-344-150-350-339l0 0 0 0z" horiz-adv-x="800" />

<glyph glyph-name="pages-articles" unicode="&#xe813;" d="M553 396c-14 0-28 5-37 16-11 9-16 23-16 37l0 301-297 0c-14 0-28-5-37-15-11-10-16-24-16-38l0-744c0-14 5-27 15-37 10-10 24-16 38-16l595 0c14 0 27 6 37 16 10 10 15 23 15 37l0 443-297 0 0 0z m157-336c0-5-2-10-5-13-3-3-8-5-12-5l-385 0c-5 0-10 2-13 5-3 3-5 8-5 13l0 35c0 5 2 9 5 13 3 3 8 5 13 5l385 0c4 0 9-2 12-5 3-4 5-8 5-13l0-35 0 0z m0 141c0-5-2-9-5-12-3-4-8-6-12-5l-385 0c-5-1-10 1-13 5-3 3-5 7-5 12l0 36c0 4 2 9 5 13 3 3 8 4 13 5l385 0c4 0 9-2 12-5 4-4 5-9 5-13l0-36 0 0z m0 0l103 339-171 173c-20 19-45 31-72 36l0-282 279 0c-5 27-17 53-36 73l0 0-103-339z" horiz-adv-x="1000" />

<glyph glyph-name="pages-dentists" unicode="&#xe814;" d="M864 166c-61 115-121 96-189 103 6-20 8-41 7-61 97-24 121-139 121-206l0-61-121 0 0 61 61 0c0 0 0 151-92 151-91 0-91-145-91-151l61 0 0-61-122 0 0 61c0 67 24 188 122 206 1 27-3 53-13 79-14 6-24 20-24 36 0 36 49 24 85 91 32 83 44 172 37 261l-61 0c0 12 6 18 6 30 1 10-1 21-6 30l49 0c-19 61-79 115-195 115l0 0c-116 0-177-54-201-121l48 0c0-12-6-18-6-30-1-11 1-21 6-30l-61 0c-4-89 9-177 37-261 37-61 85-49 85-91 0-30-30-42-67-48-19-25-28-55-24-85l0-73c36-13 60-47 61-85-4-48-44-85-92-85-50 1-90 41-91 91-1 39 24 74 61 85l0 73c0 26 4 53 12 79-60-9-111-48-134-103-37-67-33-316-33-316l792 0c7 0 9 249-28 316l0 0z m-548-134c0-17-14-30-31-30-17 0-30 13-30 30 0 17 13 31 30 31 17-1 31-14 31-31l0 0z" horiz-adv-x="1000" />

<glyph glyph-name="pages-reviews" unicode="&#xe815;" d="M305 290c-33 0-60 27-60 60 0 33 27 60 60 60 33 0 60-27 60-60 0-33-27-60-60-60l0 0 0 0z m195 0c-33 0-60 27-60 60 0 33 27 60 60 60 33 0 60-27 60-60 0-16-6-31-17-42-12-12-27-18-43-18l0 0 0 0z m195 0c-33 0-60 27-60 60 0 33 27 60 60 60 33 0 60-27 60-60 0-33-27-60-60-60l0 0 0 0z m-187 510c-158 0-304-84-383-220-79-137-80-305-2-442l-72-218c-2-5-1-11 3-15 3-3 7-5 11-5 1 0 3 0 4 0l238 63c163-83 361-57 497 66 136 122 182 316 117 487-66 171-230 284-413 284l0 0 0 0z" horiz-adv-x="1000" />

<glyph glyph-name="pages-video" unicode="&#xe816;" d="M500 800c-248 0-450-201-450-450 0-248 202-450 450-450 249 0 450 202 450 450 0 249-201 450-450 450l0 0 0 0z m156-474l-225-140c-5-3-10-4-15-4-5-1-10 1-14 3-9 5-15 14-14 25l0 281c-1 10 5 19 14 25 9 4 20 4 29-1l225-141c8-5 13-14 13-24-1-10-5-19-13-24l0 0 0 0z" horiz-adv-x="1000" />

<glyph glyph-name="pages-works" unicode="&#xe817;" d="M886 631c-18 55-55 102-105 132-39 25-85 38-132 37-41 0-81-9-118-24l-3-1c-1-1-3-2-4-2-7-3-13-5-18-7-5-2-8-3-10-4l41-41c52-45 52-89 52-170l0-21c0-6-3-11-8-14-5-3-11-3-16 0-4 3-7 8-7 14l0 21c0 78 0 111-42 147l-79 79c-39 11-80 17-120 18-23 0-46-3-68-11-89-32-169-139-144-305 3-20 6-39 8-59 15-145 47-288 96-426l2-4c14-34 36-90 76-90l3 0 3 1c29 17 51 44 59 77 7 17 13 35 18 52 12 43 30 84 53 121 19 35 53 58 92 62 14 0 29-5 41-13 39-32 64-79 70-129 4-15 8-30 12-44 20-62 45-125 86-125 23 4 43 20 52 42 27 55 46 114 56 175l5 20c5 23 10 47 16 71 32 135 68 288 33 421l0 0 0 0z" horiz-adv-x="1000" />

<glyph glyph-name="benefits-01" unicode="&#xe818;" d="M1257 598l-66 60 66 60c4 4 4 11-1 16-5 4-12 4-17 0l-66-60-65 60c-5 4-13 4-18 0-4-5-5-12 0-16l65-60-65-60c-5-5-4-12 0-16 5-5 13-5 18-1l65 60 66-60c5-4 12-4 17 1 5 4 5 11 1 16l0 0 0 0 0 0z m-246 250c-10 4-22 2-30-5l-124-82c-14-8-31-13-47-14l-52 0c-11 0-22-4-30-12-8-7-12-17-12-28l1-102c0-10 5-20 13-28 8-7 19-11 30-11l51 0c16 0 33-5 47-13l124-82c5-5 13-7 20-7 4 0 7 1 11 2 10 5 15 15 14 25l0 330c0 11-6 21-16 27l0 0 0 0 0 0z m-251-258c-10 0-18 8-18 17l-1 102c0 4 2 9 5 11 3 3 8 5 12 5l52 0c5 0 11 1 17 2l0-138c-6 1-12 2-17 2l-50 0 0-1 0 0 0 0z m240-97c0-2 0-4-1-4-1 0-3 1-4 2l-124 82c-6 4-13 8-20 10l0 151c7 3 14 6 20 10l124 82c1 1 3 2 4 2 0-1 1-2 1-3l0-332 0 0 0 0z m241-500l-277 197c-26 19-59 30-92 30l-218 0c-12 0-23 3-32 10l-277 197c-15 10-35 12-51 5l-16 32c4 3 7 6 10 10 7 10 10 22 7 34l-17 77c-2 12-10 23-21 29-11 7-24 9-37 7-13-2-24-9-32-19-7-10-10-23-7-34l17-78c5-21 25-36 49-36l1 0 22-43c-11-20-5-43 14-56l277-197c26-19 59-29 93-29l0 0 0-188-272 0c-27 0-50-20-50-46l0-31c0-3 2-7 5-10 3-3 7-4 11-4l541 0c9 0 16 6 16 14l0 31c0 26-22 46-49 46l-2 0 0 188 17 0c12 0 23-4 32-10l277-198c14-10 33-12 49-6 16 6 28 20 31 36 2 16-5 32-19 42l0 0 0 0 0 0z m-1012 503l-17 77c-1 5 0 9 3 13 2 3 7 6 11 7 1 0 3 0 4 0 3 0 7-1 10-3 4-2 6-6 7-10l17-78c2-7-3-15-11-18 0 0-1-1-2-1 0 0-1 0-1 0-1 0-2 0-3 0-9 0-16 5-18 13l0 0 0 0 0 0z m594-555l-18 0c-9 0-16-7-16-15 0-8 7-14 16-14l51 0c4 0 9-2 12-5 4-3 6-7 6-12l0-16-510 0 0 16c0 5 2 9 5 12 4 3 8 5 13 5l355 0c9 0 16 6 16 14 0 8-7 15-16 15l-52 0 0 188 138 0 0-188 0 0 0 0z m402 6c-3-4-9-6-14-6-4 0-8 1-11 3l-277 198c-15 10-33 16-51 16l-218 0c-27 0-53 8-74 23l-277 197c-3 2-6 6-7 11 0 4 1 8 4 12 3 3 7 6 12 6 1 0 2 0 2 0 4 0 8-1 11-3l277-197c15-11 33-16 52-16l218 0c26 0 52-9 73-23l277-198c4-2 6-6 7-11 0-4-1-8-4-12l0 0 0 0 0 0z" horiz-adv-x="1440" />

<glyph glyph-name="benefits-02" unicode="&#xe819;" d="M949 529c5-16-4-32-20-36l-31-9c-16-4-34 4-39 19l-9 28c-2 8-2 16 2 22 4 7 11 12 19 14l30 9c17 4 34-4 39-19l9-28 0 0z m-479-83c-5 2-10 4-14 7l-44 134c-11 33 9 69 45 79l431 121c36 10 75-8 86-42l74-225c11-34-10-69-46-80l-53-15c-11 6-26 14-43 22l86 24c18 5 28 23 23 39l-51 153-493-139-2 0 22-69c-7-3-14-6-21-9l0 0 0 0z m-16 123l493 139 2 1-8 27c-6 16-25 26-43 21l-430-122c-18-5-28-22-23-39l9-27 0 0z m817-375l-187-87c2-21-6-42-22-56-15-12-34-18-53-17-2-16-11-31-24-42-14-12-33-19-52-20-5-16-15-30-29-40-17-9-36-14-55-12-5-12-15-21-27-26-7-3-15-4-23-4-18 1-37 6-52 15l-2 0-37 25c-2-9-6-17-13-24-8-8-20-12-32-12-3 0-6 0-8 0-23 3-43 14-57 29-8-3-16-4-24-4l0 0c-18 0-42 7-59 43-5-1-11-2-16-2-18 0-49 7-61 52-24 8-45 24-57 45-7 15-7 32 1 47l-215 142c-7 4-9 14-4 21l170 239c2 4 7 6 11 7 5 1 10 0 13-3 36-24 73-45 112-64 72 33 178 46 198 48 24 9 49 14 75 14 7 0 14 0 21-1 39-6 163-70 196-87l194 71c4 1 9 1 13-1 4-2 7-6 8-10l105-268c3-7-1-15-8-18l0 0 0 0z m-835-146c5 24 17 47 34 65-5 7-13 11-22 13-11 0-24-13-34-34-5-6-5-15-2-22 6-10 14-17 24-22l0 0 0 0z m63-57c3 0 6 1 9 1 0 43 35 85 50 101-3 12-8 24-18 24-13-2-25-8-35-17l-11-10c-17-17-26-40-24-64l0 0c6-35 23-35 29-35l0 0 0 0z m85-39c-6 34 2 68 24 96 5 6 12 12 20 15-6 9-16 15-27 16-5 0-10-1-15-3-16-17-50-61-43-92l0 0c6-16 16-34 31-34 3 0 7 1 10 2l0 0 0 0z m92-12l-1 1 6 66c-9 29-26 30-29 30-7 0-14-3-18-9-16-23-22-51-16-78 10-13 25-22 41-24 1 0 3 0 4 0 3-1 6 0 8 2 3 3 5 7 5 11l0 1 0 0 0 0z m374 161c-1 0-2 1-3 1l-133 124c-23 7-132 45-160 135l-42-4c-15-12-67-49-115-49-21-1-41 7-54 22-4 4-28 37 28 90 13 14 25 24 36 33-45-7-88-20-129-38-5-3-11-3-16-1-38 18-75 39-110 61l-152-213 199-131c11 15 29 25 49 26 19-1 36-9 48-23 13 9 28 14 44 15 14 0 37-6 48-40 4 1 9 1 13 1 16 0 44-6 63-43 27-8 46-29 51-54l1-3-5-44 54-35c13-8 28-11 43-8 8 3 12 10 12 17l1 2-93 81c-3 3-5 7-5 11 0 4 1 8 5 11 6 7 17 7 24 1l106-93c0-1 0-1 1-2 9 0 18 3 26 7 8 7 14 16 16 26l-118 104c-5 4-6 10-5 15 1 6 6 10 12 12 6 1 12 0 16-4l122-108c13 0 25 5 35 12 9 8 13 19 13 31l-125 105c-3 3-5 6-5 11-1 4 1 8 4 11 6 6 17 7 24 1l130-109c12-1 25 2 35 9 8 7 11 17 11 27l0 0 0 0z m193 115l-97 240-184-68c-4-1-9-1-13 2-62 32-164 82-192 86-5 1-10 1-15 1-22-1-43-5-64-13 0 0-1 0-1 0 0 0-24-10-82-65-31-31-27-47-25-49 7-8 17-12 27-11 35 0 82 32 97 44 3 3 6 4 10 4l61 7 2 0c8 0 15-6 16-13 19-90 144-126 145-127 3 0 5-2 7-3l128-119 180 84 0 0z" horiz-adv-x="1440" />

<glyph glyph-name="benefits-03" unicode="&#xe81a;" d="M968 697l5-3 47 45c3 4 8 6 14 6 5-2 8-7 9-12l37-136c2-5 1-10-2-14-4-3-10-4-15-2l-143 35c-5 0-10 4-12 9-1 5 1 10 6 13l29 27-7 5c-153 93-352 76-485-41-132-117-165-305-80-458 86-152 268-230 444-189 176 41 300 190 303 363l42 0c-3-193-142-359-338-404-196-44-399 44-492 215-93 171-53 380 98 508 151 128 373 141 540 33l0 0 0 0z m-229-16l-28 0 0-53 28 0 0 53 0 0 0 0z m0-597l-28 0 0-53 28 0 0 53 0 0 0 0z m326 259l0 26-55 0 0-26 55 0 0 0 0 0z m-625 0l0 26-55 0 0-26 55 0 0 0 0 0z m385 104c-13-14-25-29-36-44-29-39-50-83-61-129-6-20-10-41-10-62l-61 0c4 56 22 110 53 157 15 26 33 50 53 71l-147 0 1 50 208 0 0-43 0 0 0 0z" horiz-adv-x="1440" />

<glyph glyph-name="benefits-04" unicode="&#xe81b;" d="M1107 552c-33 0-66-12-90-33l-4-4 0 120c0 75-64 135-144 135l-278 0c-80 0-144-60-144-135l0-120-4 4c-41 36-103 44-153 19-50-26-78-78-68-131 9-52 53-94 110-102l1 0 0-317 114 0 0-40c0-10 9-18 19-18 11 0 19 8 19 18l0 40 490 0 0-40c0-10 8-18 19-18 11 0 19 8 19 18l0 40 113 0 0 317 2 0c69 10 117 68 112 133-6 65-63 114-133 114l0 0 0 0z m-660-527l-75 0 0 315-19 0c-52 0-94 39-94 88 0 49 42 88 94 88 52 0 94-39 94-88l0-403 0 0 0 0z m528 0l-490 0 0 195 490 0 0-195 0 0 0 0z m0 231l-490 0 0 379c0 55 48 99 106 99l278 0c58 0 106-44 106-99l0-379 0 0 0 0z m132 84l-19 0 0-315-75 0 0 403c0 49 42 88 94 88 52 0 94-39 94-88 0-49-42-88-94-88l0 0 0 0z" horiz-adv-x="1440" />

<glyph glyph-name="benefits-05" unicode="&#xe81c;" d="M772 671l-21 0c-1 0-1 0-2 1-1 0-1 1-1 2l0 20c0 6-4 11-9 14-6 3-12 3-18 0-5-3-9-8-9-14l0-19c0-1 0-2-1-3-1 0-2-1-3-1l-20 0c-10 0-18-7-18-16 0-9 8-16 18-16l21 0c1 0 2-1 2-1 1-1 2-2 1-3l0-19c0-6 4-12 9-15 6-3 12-3 18 0 5 3 9 9 9 15l0 19c0 2 2 4 4 4l20 0c10 0 18 7 18 16 0 9-8 16-18 16l0 0 0 0 0 0z m254-133c-10 14-22 28-35 40-4 3-6 10-4 15l14 61c4 20-8 40-28 49l-213 82c-9 4-19 5-29 5-9 0-19-1-28-5l-216-82c-20-9-32-29-28-49l16-67c1-5 0-10-4-14-12-11-22-22-31-35-52-69-80-165-80-279 0-145 15-239 47-296 28-51 70-73 134-73 29 1 57 3 86 8 34 5 68 8 103 8 34 0 68-3 101-8 28-4 57-6 85-7 57-4 111 25 136 73 33 56 48 150 48 295 0 118-25 212-74 279l0 0 0 0 0 0z m-525 133l216 83c5 2 10 2 14 2 5 0 10-1 15-2l213-83c4-2 7-6 6-10l-26-112c-1-3-4-6-7-5l-176 23c-17 1-35 1-52 0l-176-23c-3-1-6 2-7 5l-26 112c-1 4 2 8 6 10l0 0 0 0 0 0z m229-692c-30 0-94 28-153 80-39 35-105 105-105 192 0 32 4 63 12 94 4 16 13 31 26 42 18 13 38 25 58 35 11 6 22 12 33 18 35 19 59 52 67 52 12-4 24-10 33-19 32-30 68-57 106-80 53-30 110-52 170-68 5-7 7-14 7-21 3-18 4-35 4-53 0-149-195-272-258-272l0 0 0 0 0 0z m-105 302c0-19-16-34-37-34-20 0-37 15-36 34 0 19 16 34 36 34 10 0 20-3 27-10 7-6 10-15 10-24l0 0 0 0 0 0z m283 0c0-19-17-34-37-34-20 0-37 15-37 34 1 19 17 34 37 34 10 0 20-3 27-10 7-6 10-15 10-24l0 0 0 0 0 0z m-178-195c30-2 58 10 76 33 5 8 2 18-7 23-4 3-9 3-13 2-5-1-9-4-12-8-25-22-64-22-89 0-5 8-16 11-25 6-8-5-11-15-6-23 18-23 46-35 76-33l0 0 0 0 0 0z" horiz-adv-x="1440" />

<glyph glyph-name="benefits-06" unicode="&#xe81d;" d="M548-57l78 0 0-25-113 0 0 163 35 0 0-138 0 0 0 0z m-142 46l73 0 0 26-73 0 0 41 85 0 0 25-120 0 0-163 120 0 0 25-85 0 0 46 0 0 0 0z m-115-20l0 0-33 112-26 0-33-112-1 0-25 112-35 0 41-163 33 0 32 108 1 0 32-108 33 0 41 163-34 0-26-112 0 0z m926 20l73 0 0 26-73 0 0 41 85 0 0 25-120 0 0-163 120 0 0 25-85 0 0 46 0 0 0 0z m-513 95c-19 0-38-7-51-19-13-14-20-31-19-49l0-33c-1-18 6-36 20-49 13-13 32-20 51-19 18-1 36 5 50 16 12 11 18 26 17 42l0 0-34 0c0-9-2-17-8-24-7-6-16-9-25-9-10 0-20 5-26 12-7 9-10 20-10 31l0 33c0 11 3 21 9 30 6 8 15 13 25 12 10 1 19-2 26-8 6-7 9-16 9-25l34 0 0 1c1 16-5 31-18 42-14 11-32 17-50 16l0 0 0 0z m353-123l0 0-45 120-46 0 0-163 35 0 0 48-3 72 1 0 46-120 24 0 47 121 1 0-3-73 0-48 35 0 0 163-46 0-46-120 0 0z m-139 103c14-13 21-31 20-50l0-29c1-19-6-37-20-50-14-13-33-21-53-20-20-1-39 7-53 20-13 13-21 31-20 50l0 29c-1 19 7 37 20 50 14 13 33 20 53 20 20 0 39-7 53-20l0 0 0 0z m-15-50c1 12-3 23-10 32-7 8-17 12-28 12-11 1-22-4-28-12-7-9-11-20-10-32l0-30c-1-11 3-22 10-31 7-8 17-13 28-13 11 0 21 5 28 13 7 9 11 20 10 31l0 30 0 0 0 0z m537 94l0-238c0-11-10-20-22-20-12 0-21 9-22 20l0 238c0 34-29 61-65 61l-1222 0c-36 0-65-27-65-61l0-238c-1-11-10-20-22-20-12 0-22 9-22 20l0 238c0 56 49 102 109 102l395 0c-4 39-2 73-6 95-5 36-27 81-23 87 19 23 46 40 76 48 11 26 17 53 15 80-2 40-7 89-8 151 0 5 0 11 0 16 2 24 9 46 21 66 30 46 82 74 138 77 14 1 29-1 42-6 4-2 8-4 11-6 0-1 5-6 5-6l4 0c6 0 13 0 19-2 9-3 17-8 24-13 4-3 7-6 11-9 10-10 19-21 27-32 10-16 16-34 20-52 0-3 1-6 1-9 1-8 1-16 1-24-1-64-6-116-8-157-2-25 3-50 12-73-2 1 59-24 79-49 5-6-18-51-23-87-4-22-2-56-6-95l395 0c60 0 109-46 109-102l0 0 0 0z m-581 242c-7 36-14 72-18 94-3 0-5 0-7 0 4-22 12-57 18-92l-63-16-4-1 54-36c-6-23-13-42-18-57-4-11-9-21-14-32l7 0c5 10 9 20 13 30 6 15 12 36 19 60l1 2-22 14-25 17 60 14-1 3 0 0z m-261 302c-1-57 30-111 80-144 0-23-3-46-8-69-15 1-30 1-45 2 74-91 95-231 95-231 0 0 19 140 95 231-14-1-29-1-44-2-4 22-7 45-8 68 44 23 80 78 80 145 1 22-3 43-11 64-10 7-20 15-29 24-14 12-24 28-29 45 0 1 0 1 0 2-23-29-53-52-87-68-27-14-56-25-86-31-2-12-4-24-3-36l0 0 0 0z m-17-305l59-14-22-15-25-16 1-2c7-24 13-45 19-60 4-10 9-20 13-30l7 0c-5 11-10 21-13 32-6 15-13 34-19 57l54 36-5 1-62 16c6 35 14 70 18 91-2 1-4 1-7 1-4-22-11-58-18-94l0-3 0 0z m204 291c7 0 13 4 15 10 3 5 1 12-3 17-5 4-13 6-19 3-6-2-10-8-10-15 0-8 8-15 17-15l0 0 0 0z m-113 15c0 7-4 13-10 15-6 3-14 1-19-3-4-5-6-11-3-17 2-6 8-10 15-10 10 0 17 7 17 15l0 0 0 0z m48-89c14 0 27 5 35 16 1 1 1 3 1 5-1 2-2 4-4 5-4 2-9 1-12-2-11-10-29-10-40 0-3 3-8 4-12 2-2-1-3-3-4-5 0-2 0-4 1-5 8-11 21-16 35-16l0 0 0 0z" horiz-adv-x="1440" />

<glyph glyph-name="benefits-07" unicode="&#xe81e;" d="M1100 473l0-135c0-55-99-98-104-99 0-1-1-1-1-1-1 0-2 272 0 272l0 0c1 0 3-1 4-3 0 0 14-30 97-30 1 0 2 0 3-1 0-1 1-2 1-3l0 0 0 0z m60 64l0-213c0-87-156-154-163-157-1 0-3 0-5 0-23 10-45 22-66 35-8-90-34-212-112-212-78 0-95 74-111 140-14 62-26 99-59 99 0 0-1 0-2 0-1 0-2 0-2 0-33 0-44-37-59-99-16-66-33-140-111-140-111 0-116 247-116 297-3 27-11 53-22 78-26 70-58 156 2 233l0 0c76 97 147 75 216 53l1 0c58-25 124-25 182 0l1 0c69 22 140 44 216-53l0 0c7-9 13-18 17-28 9 5 16 12 22 21 1 2 3 3 6 3l0 0c2 1 5-1 6-3 0-1 22-48 152-48 4 0 7-3 7-6l0 0 0 0z m-269-310c-33 26-62 60-62 97l0 213c0 1 1 3 2 4 2 1 3 2 5 2 33-1 66 3 98 12-4 8-8 15-14 21-60 78-108 63-175 41l-2-1c-65-26-137-26-201 0l-3 1c-67 22-115 37-175-41-48-61-21-134 3-199l1-2c12-28 20-58 23-88 0-130 27-261 79-261 45 0 59 44 75 113 14 62 30 126 95 126 0 0 1 0 2 0 1 0 2 0 2 0 65 0 80-64 95-126 16-69 30-113 75-113 44 0 70 93 77 201l0 0 0 0z m233 276c0 2-2 4-5 4-102 0-119 38-120 38 0 2-2 3-4 3l0 0c-2 0-4-1-5-3-2-4-6-8-10-11-10-8-22-14-35-17-24-7-49-10-75-10-2 0-5-2-5-4l0-167c2-22 12-42 28-57 11-12 23-22 37-31 19-13 40-25 63-34 1-1 2-1 4 0 5 2 127 54 127 122l0 167 0 0 0 0z" horiz-adv-x="1440" />

<glyph glyph-name="benefits-08" unicode="&#xe81f;" d="M1176 143c28-67-103-191-160-241-118-103-335-33-452 38-51 31-110 47-170 47-15 0-30-1-45-3-6-2-12 0-16 4l-1 1c-92 99-34 230-32 236 3 6 9 10 15 10 40 3 110 8 131 10l1 0 1 1c128 87 230-6 285-56 12-10 21-19 30-26 15-13 36-20 57-19 41-2 81-12 118-29 40-16 62-38 65-64 5-42-41-75-46-79-4-2-8-3-12-3l-228 21c-5 0-9 2-12 6-3 3-5 8-4 12 0 5 3 9 6 12 4 2 9 4 13 3l221-20 1 1c9 8 28 26 26 43-2 14-17 27-44 38-34 15-70 24-107 26-28-1-55 9-77 26-9 7-19 17-32 28-75 68-146 120-243 50-2-2-5-3-8-4-8-1-52-4-124-9l-4-1 0-2c-11-33-31-115 22-180l1-2 3 0c80 9 160-9 228-50 104-63 307-130 408-42 116 101 165 182 151 206-1 2-1 5-1 7-1 15-9 29-21 38-16 10-40 5-58-1-4-2-9-1-14 0-2 1-4 3-5 4-5 3-50 25-92-30-6-7-17-9-25-3-4 3-6 6-7 11-1 4 0 9 3 12 39 51 84 52 108 49 9-2 18-4 27-8l1-1 2 1c26 9 56 7 80-6 21-14 34-36 36-60l0-2 0 0z m-145 475c-9-18-15-38-17-59 0-209-70-225-91-225-61 0-75 56-87 107-11 45-19 73-43 73-24 0-32-28-43-73-12-51-26-107-87-107-21 0-91 16-91 225-2 21-8 40-16 59-20 53-45 119 1 177 59 75 117 57 168 41 43-19 93-19 136 0 51 16 109 34 168-41l0 0c46-58 21-124 2-177l0 0 0 0z m-30 10c19 49 39 104 3 150-46 58-83 46-134 30l-1 0c-48-20-103-20-151 0l-2 0c-51 16-88 28-134-30-36-46-15-101 3-150l1-2c9-21 15-44 17-67 0-97 21-196 60-196 34 0 45 33 57 84 11 47 23 96 73 97 50-1 62-50 73-97 13-51 23-84 57-84 39 0 60 99 60 196 2 23 8 46 18 67l0 2 0 0z" horiz-adv-x="1440" />

<glyph glyph-name="services-bite-correction" unicode="&#xe820;" d="M984 476l-3 9c0 0 0 1 0 1-4 13-8 26-12 38l-1 1c-4 11-9 23-14 34l-2 4c-5 11-11 22-16 32-2 2-3 4-4 6-6 11-12 21-19 30-1 2-2 3-3 4-6 10-13 19-20 28-1 1-2 2-2 2-8 10-17 19-25 28-1 1-2 2-3 3-74 77-171 129-277 147l-1 0c-13 2-25 4-38 5l-6 0c-13 1-25 2-38 2-13 0-25-1-38-1l-6-1c-13-1-25-3-38-5l-1 0c-106-18-203-70-278-147 0-1-1-2-2-3-9-9-17-18-25-28 0 0-1-1-2-2-7-9-14-18-21-28 0-1-1-2-2-4-7-9-13-19-19-30-1-2-2-4-4-6-5-10-11-21-16-32l-2-4c-5-11-10-23-14-34-1-1-1-1-1-1-4-12-8-25-12-38 0 0 0-1 0-1l-3-9c-53-203 27-417 198-536 172-120 400-120 572 0 172 119 251 333 198 536l0 0 0 0z m-101-272c1-39-54-46-126-51l-13-1c-32-3-65-3-97 1-9 0-17 1-27 1-64 5-104 10-103 50 0 27 1 84 4 146l62 0 0-67 100 0 0 67 33 0 0-67 100 0 0 67 56 0c6-55 10-108 11-146l0 0 0 0z m-400 0c1-40-39-45-104-49-9-1-18-2-26-2-32-4-65-4-97-1l-13 1c-72 5-127 12-126 51 1 38 5 91 11 146l55 0 0-67 100 0 0 67 34 0 0-67 100 0 0 67 62 0c3-62 4-119 4-146l0 0 0 0z m-439 246c14-8 30-12 46-12l15 0c-3-18-5-36-7-55l-63 0c1 23 5 45 9 67l0 0 0 0z m9 35c4 11 8 23 12 33 1 2 1 4 2 6 4 10 9 20 14 30 0 2 1 3 2 4 4 9 9 18 14 27 1 2 2 3 3 5 6 9 11 18 17 27 2 2 3 3 5 5 6 9 13 18 20 26 0 1 0 1 1 2 7 9 15 17 23 25l1 1c8 9 17 17 26 25l0 0c66 57 145 95 231 109 0 0 0 0 1 0 11 2 23 4 34 5l6 0c12 1 24 1 35 1 12 0 23 0 35-1l6 0c12-1 23-3 35-5 0 0 0 0 1 0 85-14 165-52 230-109 0 0 0 0 0 0 9-8 18-16 27-25 0 0 0 0 1-1 8-8 15-16 23-25 0-1 1-1 1-2 7-8 14-17 20-26 1-2 3-3 4-5 6-9 12-18 18-27 1-2 1-3 2-5 5-9 10-18 15-27 0-1 1-2 2-4 5-10 9-20 13-30 1-2 2-4 2-6 5-10 8-21 12-33 0 0 0 0 0 0-10-9-23-14-36-14l-17 0c-6 36-14 71-22 104-24 101-109 113-172 113-117 0-155-6-189-132-4-17-7-34-11-53-3 19-7 36-11 53-33 126-72 132-189 132-62 0-148-12-172-113-8-33-15-68-22-104l-16 0c-14 0-27 5-37 14l0 0 0 0 0 0z m107 83c19 76 78 86 140 86 110 0 129-3 157-107 11-54 18-109 20-164l-60 0 0 67-100 0 0-67-33 0 0 67-100 0 0-67-52 0c6 62 16 124 28 185l0 0 0 0z m223-151l0-100-33 0 0 100 33 0 0 0z m-133 0l0-100-33 0 0 100 33 0 0 0z m367-100l0 100 33 0 0-100-33 0 0 0z m133 0l0 100 33 0 0-100-33 0 0 0z m67 66l0 67-100 0 0-67-34 0 0 67-100 0 0-67-60 0c2 55 9 110 21 164 27 104 46 107 156 107 62 0 122-10 140-87 13-60 23-122 29-184l-52 0 0 0z m79 55l14 0c16 0 32 4 46 12 5-22 8-44 9-67l-63 0c-2 19-4 37-6 55l0 0 0 0z m-396-555c-257 1-466 209-466 467l60 0c-5-55-9-107-10-145-3-74 90-80 157-85l13-1c20-2 36-2 52-2 15 0 30 0 50 2 9 1 17 2 26 2 43 3 93 7 118 35 26-28 76-32 119-35 8 0 17-1 26-2 20-2 35-2 50-2 15 0 31 0 52 2l13 1c67 5 159 11 157 85-1 38-5 90-11 145l61 0c0-258-209-466-466-467l0 0-1 0z" horiz-adv-x="1000" />

<glyph glyph-name="services-dentistry" unicode="&#xe821;" d="M878 543l-191 0c-88-1-173 35-235 97l-37 37 0 0c-1 1-3 2-4 3 0 0-1 0-1 0-1 1-3 1-4 1l-1 0-162 0c-4 0-7-2-9-4-3-3-4-6-4-10l0-162c0-47 34-87 81-93l0-46c-11-6-16-18-13-30 3-12 14-20 26-20 12 0 23 8 26 20 3 12-2 24-12 30l0 46c46 6 81 46 81 93l0 19c66-58 150-90 238-90l221 0c8 0 14 6 14 14l0 81c0 4-2 7-4 10-3 2-6 4-10 4l0 0z m-554-105c-37 0-68 30-68 68l136 0c0-38-31-68-68-68l0 0z m68 203l-27 0c-8 0-14-6-14-14 0-7 6-13 14-13l27 0 0-82-136 0 0 82 27 0c5 0 10 2 12 6 3 4 3 10 0 14-2 4-7 7-12 7l-27 0 0 13 136 0 0-13 0 0z m27-79l0 73 14-14c52-52 118-87 191-100l30-59c-89 0-173 36-235 100l0 0z m265-101l-28 56c10-1 21-1 31-1l21 0 27-55-51 0 0 0z m81 0l-27 55 45 0 31-55-49 0 0 0z m100 0l-20 0-31 55 51 0 0-55 0 0z m-365 389c-217 0-410-140-476-347-66-207 9-433 186-560 11-8 23-16 36-23 13-9 28-16 43-23 134-63 288-63 422 0 15 7 29 14 43 23 12 7 24 15 36 23 177 126 253 353 186 560-66 207-259 347-476 347l0 0z m80-953c-53-10-107-10-160 0-70 12-137 41-194 84l-90 278c-2 7-1 14 4 20 4 6 11 10 18 10 62 0 119-34 149-88 1-1 1-3 2-5-1-2-2-5-3-8-1-3-2-6-3-9-1-4-2-6-3-9-1-6-3-12-4-18 0-1 0-3 0-5-1-6-2-11-2-17 0-1 0-3 0-4 0-7 0-14 0-21 0-1 0-2 1-4 0-7 1-14 3-21 7-40 19-78 34-116l1-2c8-19 21-52 46-52l2 0 3 1c17 10 30 26 35 45 4 9 7 19 10 28 7 23 17 44 29 64 1 2 3 5 6 8 12 21 39 29 61 17 20-16 33-40 36-67 2-8 4-16 7-24 11-33 25-68 49-70 16 0 30 10 36 25 15 30 26 62 31 96l3 11c2 11 5 22 8 34 1 5 2 9 3 14 0 1 0 3 0 4 1 4 1 7 1 11 0 1 1 2 1 4 0 4 0 7 0 11l0 3c0 10-1 20-2 30 0 0 0 1-1 1 0 4-1 9-2 13 0 1 0 2-1 3-1 4-2 8-3 12 0 0 0 1-1 2-1 5-3 9-5 14l1 3c20 52 70 86 125 86l30 0c8 0 15-3 19-9 4-6 6-14 3-21l-89-278c-58-43-124-72-194-84l0 0z m-259 229c0 1 0 1 0 2 0 5 0 10 1 15 0 2 1 4 1 6 1 5 2 9 3 13 1 4 2 7 3 11 1 2 2 4 2 6 2 4 3 7 4 10 8 18 18 34 31 48 16 18 31 38 44 59 25 39 57 88 83 88 28 0 60-45 88-85 13-20 28-39 44-56 15-15 26-32 34-51 1-2 2-4 3-6 1-4 3-8 4-13 0-1 1-3 1-5 2-6 3-11 4-17 0-2 1-4 1-6 0-5 1-9 1-14 0-2 0-3 0-5 0-6 0-12-1-18 0-1 0-3 0-5-1-6-2-12-3-18-3-12-6-24-9-35l-2-12c-5-30-15-60-29-88-2-4-5-8-9-11-1 0-11 4-26 52-3 7-5 15-7 22-4 34-21 64-48 84-35 21-75 8-103-33-14-22-25-46-32-71-3-9-6-18-10-27-2-11-8-21-17-28-9 10-16 22-19 34l-1 3c-15 36-25 73-33 110-1 6-2 13-2 19 0 1-1 3-1 4 0 6-1 12-1 18l1 0z m492-113l76 237c5 16 2 32-7 45-9 13-25 21-41 21l-30 0c-59 0-114-33-142-86-7 12-15 22-25 31-15 17-29 35-41 53-34 48-68 96-110 96-40 0-74-50-106-99-12-20-26-39-41-56-8-9-15-19-22-30-36 57-99 91-166 91-16 0-31-8-40-21-10-13-13-30-8-45l77-237c-139 129-185 329-115 505 69 176 238 292 428 292 189 0 359-115 428-292 69-176 23-376-116-505l1 0z" horiz-adv-x="1000" />

<glyph glyph-name="services-for-children" unicode="&#xe822;" d="M500-150c-202 0-384 122-462 309-77 186-35 401 108 544 143 144 358 186 545 109 187-77 309-260 309-462 0-276-224-500-500-500l0 0z m0 960c-186 0-354-112-425-284-71-172-32-370 100-501 131-132 329-171 501-100 172 71 284 239 284 425 0 254-206 460-460 460l0 0z m293-595c-3-59-36-113-89-142-131-52-277-52-408 0-52 29-85 83-88 142-41 7-71 42-71 84-1 41 29 77 70 84l0 13c-1 105 55 203 146 256 91 53 204 53 295 0 91-53 147-151 146-256l0-13c40-7 70-43 70-84 0-42-31-77-72-84l1 0z m-586 137c-24-7-40-28-40-53 0-24 16-46 40-53l0 106 0 0z m557 44c-1 143-116 261-260 263 13-7 25-15 35-25 26-23 41-56 42-90 0-50-40-90-90-90-41 0-75 34-75 75 0 35 29 63 63 63 6 0 11-3 14-7 3-5 3-11 0-16-3-5-8-7-14-7-18 0-33-15-33-33 0-25 21-45 45-45 34 0 60 27 60 60-7 63-63 108-126 104-111-34-188-136-188-252l0-157c-5-57 24-111 74-140 122-47 257-47 379 0 50 29 79 83 74 140l0 157 0 0z m30-44l0-106c23 7 40 29 40 53-1 25-17 46-41 53l1 0z m-142-94c-16 0-29 13-29 29 0 16 13 29 29 29 16 0 29-13 29-29 0-8-3-15-9-21-5-5-13-8-20-8l0 0z m-152-160c-62 0-112 51-112 112 0 9 7 15 15 15l194 0c9 0 15-6 15-15 0-61-50-112-112-112l0 0z m2 97l0-14c0-8-7-14-15-14-8 0-14 6-15 14l0 14-52 0c7-39 41-67 80-67 40 0 74 28 81 67l-78 0-1 0z m-153 63c-16 0-29 13-29 29 0 16 13 29 29 29 16 0 29-13 29-29 0-8-3-15-9-21-5-5-13-8-20-8l0 0z" horiz-adv-x="1000" />

<glyph glyph-name="services-gums-treatment" unicode="&#xe823;" d="M1000 350c0 8 0 17-1 25 0 2 0 5 0 8-1 5-1 11-2 16 0 3 0 7-1 10 0 4-1 9-2 14 0 3-1 7-1 11-1 4-2 8-2 12-1 4-2 8-3 12-1 4-2 7-3 11-1 4-2 8-3 12-1 4-2 7-3 11-1 4-2 8-4 12-1 3-2 7-3 10-1 4-3 8-4 12-1 1-1 2-2 4l-9 24 0-1c-81 182-262 298-461 297-198-1-378-120-456-303l0 0-2-6c-2-5-4-9-5-13-1-3-2-5-3-7-2-5-4-11-5-16-1-2-2-5-3-8-2-5-3-10-4-16-1-2-2-5-3-7-1-6-2-11-3-17-1-2-2-5-2-7-1-6-2-12-3-18 0-2-1-4-1-7-1-6-2-12-3-18 0-2 0-4 0-7-1-6-1-12-2-18 0-2 0-4 0-7-1-8-1-16-1-25 0-8 0-16 1-24 0-3 0-6 0-10 1-4 1-8 1-13 1-4 1-8 2-13 0-3 1-6 1-9 1-5 2-10 2-15 1-3 1-5 2-7 1-6 2-11 3-17 0-1 1-3 1-5 1-6 3-11 4-17 1-1 1-2 1-2 7-27 17-52 28-77l2-5c2-3 4-7 6-11 2-4 3-7 5-10 2-3 3-6 5-9 2-4 5-8 7-12 1-2 3-4 4-6 3-5 6-10 9-15 1-1 2-3 3-4 4-6 8-11 12-17 0 0 1-1 1-2 5-5 9-11 14-16l0-1 6-7 18-22 1 1c2-2 4-4 6-7 1-1 3-2 4-3 5-5 9-9 14-14 1-1 2-2 3-3 6-4 11-9 16-13 1-1 1-1 1-1 23-19 47-35 72-49 3-2 6-4 9-5 4-2 8-4 12-6 4-2 7-4 11-6 4-2 7-3 11-5 4-2 9-4 13-6 3-1 6-2 10-3 5-2 10-4 15-6l9-3c5-2 11-4 17-5l7-3c7-1 12-3 19-4 2-1 5-1 7-2 6-1 12-2 19-3 2-1 4-1 7-2 6-1 13-1 19-2 3-1 5-1 7-1 7-1 14-1 20-2 2 0 5 0 7 0 9-1 17-1 26-1 9 0 18 0 27 1 4 0 7 0 11 1 5 0 10 0 14 1 5 0 10 1 14 1 4 1 8 1 12 2 5 1 9 2 14 2l11 3c5 1 9 2 14 3 4 1 8 1 11 2 4 2 9 3 13 4 4 1 8 3 12 4 4 1 8 2 11 4 5 1 9 3 14 5 3 1 7 2 10 4 5 1 10 4 14 6 2 0 4 1 6 2l19 9 0 0c163 83 268 249 273 433l0 0 0 13z m-242-207c-2-3-6-4-9-4-3 0-7 1-9 4l-64 64c-5 5-5 13 0 18l63 64 38-39c4-3 8-5 12-5 5 0 9 2 12 5 6 7 6 17 0 24l-39 38 27 27 22-22c4-5 10-6 16-5 6 2 10 6 12 12 1 6 0 12-5 16l-22 22 27 27 38-39c7-6 17-6 24 0 6 7 6 17 0 24l-39 38 27 26 22-21c6-7 17-6 23 0 6 6 7 17 0 23l-22 22 32 31c0 0 0 0 0-1 4-10 6-21 9-31 0-2 1-4 1-6 3-10 5-20 6-30 0-1 1-2 1-2 1-11 3-22 4-32 0-3 0-5 0-8 1-10 1-20 1-31l0-1-208-208z m-121-39c-5 6-7 14-3 21l25 51 25-25 25-24-51-26c-7-4-15-2-21 3l0 0 0 0z m-137 713c189 0 359-114 431-289l-279-279c-10-10-15-25-13-39l-35-70c-7-14-7-31 0-45l-31-31c-42 46-67 107-69 169l0 2c20 70 22 144 7 214-13 39-40 72-75 92-55 31-121 34-179 9l-2-1c-1 0-2 0-3-1-5-1-9-3-12-4-7-4-16-3-23 1-43 15-88 20-133 16 79 157 240 255 416 256l0 0 0 0z m-12-862c3-3 7-5 12-5 4 0 8 2 12 5l60 60c16-16 33-32 51-47 10-8 20-17 30-27 7-8 14-16 21-24-2-1-5-1-7-2-3-2-7-3-10-4-4-2-8-3-12-4-3-1-6-2-9-3-5-1-9-3-14-4-2-1-5-2-8-2-5-1-10-3-15-4-2 0-4-1-7-1-5-1-10-2-16-3-2 0-4-1-6-1-6-1-11-2-17-2l-6-1c-6-1-12-1-18-1-2 0-4-1-6-1-7 0-15 0-23 0-8 0-17 0-25 0-1 0-3 1-4 1-7 0-14 1-20 1-2 0-3 1-5 1-7 1-13 1-19 3-2 0-4 0-5 0-7 1-13 3-19 4-2 0-4 1-6 1-6 1-12 3-18 5-2 0-4 1-6 1-5 2-11 3-16 5l-7 3c-6 1-11 3-16 5-2 1-5 2-8 3-4 2-9 4-13 6-3 1-6 3-9 4-4 2-8 4-12 6-4 1-7 3-10 5-4 2-6 3-10 5-4 2-8 4-11 7-3 1-5 3-8 4-4 3-8 6-13 9-1 1-3 2-4 3-5 3-10 7-15 10l-1 1c-23 17-45 37-65 59 0 0 0 0-1 1-1 1-2 2-3 4l2 5c8 28 20 55 36 79 12 17 44 55 85 31 27-16 36-48 45-82 3-11 5-21 8-30 14-41 32-84 62-87 2 0 3 0 4 0 0 0 1 0 1 0 1 0 2 0 3 0 1 0 2 0 3 1 1 0 2 0 3 0l3 1c1 1 2 1 3 2 0 0 1 1 2 1 1 1 2 1 3 2 1 1 2 1 2 2 1 1 2 1 3 2 1 1 2 2 3 3 0 1 1 2 2 3 1 1 2 2 3 4 1 0 2 1 2 2 2 2 3 5 5 8 19 37 33 76 40 117l3 14c2 11 5 22 8 33 14-41 36-79 65-112l-62-62c-3-3-5-7-5-11 0-5 2-9 5-12l0 0 0 0z m-380 143c-2 2-3 4-5 6-5 9-11 19-16 28l-2 5c-11 20-20 42-27 64-1 1-1 2-1 3-4 11-7 23-10 34 0 0 0 1 0 1-3 11-6 23-8 35 0 1 0 1 0 1-2 12-3 23-4 35 0 2 0 4 0 6-1 11-2 22-2 34 0 8 0 16 1 23 0 2 0 5 0 7 1 5 1 11 1 16 1 3 1 5 1 7 1 6 1 11 2 16 1 3 1 5 2 7 0 5 1 11 2 15 1 3 1 5 2 8 1 5 2 10 3 15 1 2 2 5 2 7 2 5 3 10 4 14 1 3 2 5 3 8 1 5 3 9 4 14 1 2 2 5 3 7 1 3 2 5 3 8 2 1 4 1 6 2 39 14 96 0 136-11 14-7 30-7 44-1 3 1 6 3 11 4 2 1 3 2 5 2l2 1c47 21 102 19 148-6 29-16 50-42 61-73 13-65 11-133-7-198l-1-5c-5-22-10-43-15-64-4-16-8-31-12-47l-3-14c-6-37-18-74-36-108-2-6-6-11-12-14 0 0-13 2-34 64-3 9-5 18-7 28-10 37-22 79-61 103-3 1-7 3-10 4-1 1-2 1-3 2-2 1-5 1-7 2-1 0-2 1-3 1-3 1-5 1-8 2-1 0-1 0-2 0-3 0-7 1-10 1l0 0-1 0c-4 0-7-1-10-1-1 0-2 0-3 0-3-1-5-1-8-2-1 0-2-1-2-1-4-1-7-2-10-4l-2-1c-3-1-6-2-9-4l-2-2c-3-1-6-3-9-6 0 0-1 0-1 0-3-3-6-6-9-9-1 0-2-1-3-2-2-2-4-5-7-7 0-1-1-2-2-3-3-4-6-7-8-11-5-7-9-13-13-20-1-2-2-5-3-7-2-4-5-9-7-14l-3-8c-2-4-4-9-5-13-1-3-2-6-3-8-1-1-1-3-2-4l-2 3c-5 8-11 16-16 24l0 0 0 1z m597-167c-9 11-18 22-28 33-11 10-21 20-33 30-17 14-33 29-49 45l33 32c14-7 31-7 45 0l70 35c2 0 4 0 6 0 13-1 24 4 33 13l182 182c-17-159-114-299-259-370l0 0 0 0z" horiz-adv-x="1000" />

<glyph glyph-name="services-implantation" unicode="&#xe824;" d="M500 850c-202 0-384-122-462-309-77-186-34-401 109-545 143-143 358-185 544-108 187 77 309 260 309 462 0 276-224 500-500 500l0 0z m-139-627c-34-4-67-11-99-19-10-3-20-1-29 4-9 6-15 15-16 25-7 37-12 75-18 111l-1 12c-3 16-5 32-8 48-13 88 14 192 104 224 16 5 32 8 48 7 41-1 82-9 122-22 16-8 36-8 52 0l3 1c3 1 7 3 11 4 2 1 4 1 5 2l3 2c29 11 59 18 90 18 34 0 67-9 96-27 37-21 64-54 78-93 23-88 6-189-16-285-2-9-8-18-16-23-9-5-19-6-29-4-28 7-57 12-86 15l-11 2c-45 4-90 6-135 6-12 0-24 0-36-1l-5 0-9 0c-7 0-13 0-19-1l-19-1c-4 0-8 0-13-1-4 0-8 0-11-1l-31-2-5-1 0 0 0 0z m54-31c7 0 13 1 19 1 4 0 7 0 11 1 7 0 15 0 22 0 3 0 6 1 9 1 21 0 43 0 64 0l21-1c2 0 5 0 8 0 6-1 13-1 19-1l7 0 18-2-8-37-185-34-15 71c3 0 7 1 11 1l-1 0z m182-76l-10-44-149-30-10 44 169 30z m-49-222l-78 0-7 29 95 16-10-45z m18 83l-110-19-11 49 133 27-12-57z m20-79l10 48 37 7c9 1 16 11 14 20-2 10-11 17-21 15l-22-4 13 57 29 6c10 2 16 12 14 21-1 10-11 16-21 14l-14-3 10 44 25 5c9 1 16 10 15 19-1 10-9 17-18 17-2 0-3-1-4-1l-10-2 6 27c28-3 56-8 84-15 19-4 39-1 56 9 16 10 28 26 32 45 23 100 41 206 15 302-15 48-48 89-92 114-35 22-75 33-116 33-36-1-71-8-103-21l-6-3c-6-2-11-4-15-6-4-1-7-2-11-3-7 1-13 3-19 5-42 14-87 22-131 23-21 1-41-3-61-9-78-28-148-120-127-263 3-14 5-28 7-42l1-12c6-38 12-79 19-118 3-20 15-38 32-49 17-11 38-14 57-9 32 9 65 15 98 19l16-74-27-5c-9-1-16-11-14-21 2-9 11-16 21-14l28 5 10-44-32-7c-9-1-16-10-15-19 1-10 9-17 19-16 1 0 2 0 4 0l31 7 11-49-22-3c-10-1-17-10-16-20 0-10 9-17 19-16 1 0 2 0 3 0l24 4 4-21c-236 35-406 246-391 484 16 238 211 425 450 430 238 4 441-175 465-412 25-238-137-455-371-499l0 0z" horiz-adv-x="1000" />

<glyph glyph-name="services-prosthetics" unicode="&#xe825;" d="M865 415c0 10-2 20-6 29-1 4-2 8-4 14-16 50-51 92-96 119-69 42-154 48-229 17l-2-1c-2-1-3-1-5-2-6-2-11-4-15-5-12-6-25-5-35 1-46 13-134 33-201 9-79-25-133-98-134-181l-1-15 267 0 0-52-18-6c-7-2-11-9-10-16 1-7 7-12 14-12 2 0 3 0 4 0l10 4 0-56-18-6c-7-2-11-9-10-16 1-7 7-12 14-12 2 0 3 0 4 1l10 3 0-55-18-6c-7-2-11-9-10-16 1-7 7-13 14-12 2 0 3 0 4 0l10 4 0-33 29 0 0-47 50-67 43 0 49 67 0 47 29 0 0 94 19 7c5 1 8 5 9 10 1 5 0 11-4 14-4 3-9 4-14 3l-10-3 0 55 19 6c7 3 11 11 9 18-3 8-11 12-18 9l-10-3 0 56 19 6c6 2 9 7 9 13l235 0-2 16z m-290 13l0-28-33-11c-6-2-10-9-9-16 1-7 7-12 14-12 1 0 3 1 4 1l24 8 0-55-33-11c-6-2-11-9-10-16 1-8 8-13 15-12 1 0 3 0 4 0l24 8 0-55-33-11c-6-2-11-9-10-16 1-7 8-12 15-12 1 0 3 0 4 1l24 8 0-57-28 0 0-66-36-48-14 0-36 48 0 66-28 0 0 14 61 19c8 2 12 10 10 18-3 7-11 12-18 9l-53-17 0 56 61 20c5 1 9 5 10 10 1 5 0 10-4 14-4 3-9 4-14 3l-53-17 0 56 61 19c8 2 12 10 10 18-3 8-11 12-18 9l-53-16 0 71-265 0c5 66 50 122 114 141 61 22 148 0 183-10 16-8 36-8 53 0 4 1 9 3 15 5 2 1 4 2 6 3l2 1c66 27 141 21 202-15 40-23 70-59 84-102 2-7 4-12 5-16 1-3 2-5 2-7l-259 0 0 0z m-75 422c-214 1-404-135-473-338-69-203-1-428 168-558 12-9 25-18 38-26 36-23 76-42 118-55 9-3 18-6 27-8 29-7 58-12 87-14 12 0 23-1 35-1 16 0 31 1 47 2 27 3 53 7 79 14 10 3 19 5 28 8 40 13 78 31 113 53 12 8 23 16 35 24 171 130 240 355 172 559-68 204-259 341-474 340l0 0z m-106-948c5 10 9 19 12 27 6-11 12-22 20-33-11 2-21 4-32 6l0 0z m185-5c1 3 3 6 4 9l7 13c4 7 8 16 12 25 4-14 8-27 12-40-11-3-23-5-35-7l0 0z m238 120c3 11 6 22 8 33 29 90 42 185 37 280l-1 12-186 0 0-28 160 0c1-87-11-174-37-257-6-23-12-48-18-72-41-32-88-57-138-73-7 22-14 46-23 74 0 1 0 1-1 2l0 2 0 0c-1 4-3 7-7 9-3 2-7 2-11 1l-13-4 2-10c-7-18-15-36-24-54l-7-14c-4-9-9-17-14-26-14-1-29-2-43-2-12 0-24 1-36 2-14 18-27 38-38 58-3 6-6 11-8 15l-5 8-9-1c-5 0-12-1-38-62-55 17-106 44-151 79-19 78-31 160-42 239-3 18-5 36-8 53l-1 6c-2 9-2 18-2 27l171 0 0 29-198 0-1-14c-2-15-2-31 1-46l1-6c3-17 5-35 8-53 10-67 20-136 34-203-134 132-175 332-104 506 71 174 241 287 428 286 188-1 356-117 425-292 69-175 25-374-111-504l0 0z" horiz-adv-x="1000" />

<glyph glyph-name="services-removing" unicode="&#xe826;" d="M1000 327l0 0c-8-175-107-333-261-416 0 0-1-1-1-1-7-3-13-7-20-10l-2-1c-6-3-13-6-19-9-1 0-2-1-4-1-6-3-12-5-18-7-1-1-3-2-5-2-5-2-11-4-17-6-2-1-4-1-6-2-5-2-11-3-16-5l-8-2c-5-1-10-2-16-3-2-1-5-2-8-2-5-1-10-2-15-3-3 0-6-1-9-1-5-1-11-2-16-2-3-1-6-1-9-2-5 0-11-1-17-1-2 0-5 0-8 0-8-1-16-1-25-1-8 0-17 0-25 1l-8 0c-6 1-11 1-17 1l-9 2c-5 0-10 1-16 2-3 0-5 1-8 1-6 1-11 2-16 3l-8 2c-5 1-11 2-16 3-2 1-5 2-7 2-6 2-11 3-17 5-2 1-4 1-6 2-6 2-11 4-17 6-2 0-3 1-5 2-6 2-12 4-18 7-1 0-3 1-4 1-6 3-12 6-19 9l-2 1c-7 3-13 7-20 10 0 0 0 1-1 1-154 83-252 241-260 416l0 0c-1 8-1 15-1 23 0 11 0 21 1 31l0 0 1 7c0 1 0 1 0 1 0 8 1 15 2 23 0 1 0 1 0 2l1 7c0 1 0 1 0 1 3 20 7 39 12 58 0 1 0 1 0 2l2 6c0 1 1 2 1 3 2 6 4 12 6 18 0 1 1 3 1 4l1 4c1 0 1 1 1 2 3 9 7 18 11 26 0 2 1 4 2 5 3 7 6 14 9 21 1 1 2 3 2 4l2 3c0 1 1 3 2 4 3 5 5 10 8 14 2 3 3 6 4 9l8 12 0 0c15 23 32 46 51 67l0 0 6 6c4 5 8 9 12 13l1 1c5 5 10 10 15 14 1 1 2 2 3 3 5 4 9 8 14 12 2 2 4 3 6 5 4 3 8 6 12 9 3 2 6 5 9 7 3 2 6 5 9 7 5 3 9 6 14 9 2 1 4 2 6 3 6 4 12 8 19 12l1 1c75 42 159 64 245 64 9 0 18 0 26-1l3 0c51-3 102-13 150-32 1 0 1 0 1-1 8-2 15-5 22-9 1 0 3-1 4-1 6-3 12-6 18-9 2-1 5-2 6-3 5-3 10-6 15-8 3-2 6-4 9-5 4-3 8-5 11-7 4-3 8-5 12-8 2-1 5-3 7-5 5-3 10-6 14-10 1 0 2-1 3-2 26-19 50-41 71-65l5-5 0-1c25-28 46-59 64-92l5-10c1-2 2-3 2-4 4-8 8-16 11-24 1-1 1-2 1-3 4-8 8-18 11-27 0 0 1-1 1-2l0-2c2-3 3-7 4-10 1-4 2-8 3-12 1-2 2-4 2-5l2-5c0-1 0-2 0-2 5-19 9-39 12-58l0-1 1-8c0 0 0 0 0 0 1-8 2-15 2-23l0 0c0-4 1-6 1-8 0-11 1-21 1-32 0-8 0-15 0-23l0 0z m-202 382l-2 2c-5 4-10 8-15 11-1 1-3 3-4 4-4 3-9 6-13 9-3 1-5 3-8 5-3 2-7 4-10 7-4 2-8 4-11 6-3 2-6 3-8 5-5 3-10 5-15 8-2 1-3 1-5 2-6 3-13 7-20 9 0 0 0 1 0 1-148 64-318 48-450-43-3-2-5-4-7-5-4-3-7-5-11-8-3-2-8-6-11-9l-6-4c-5-4-9-8-13-12l-3-3c-5-4-10-9-15-13 0-1-1-1-1-2-2-2-4-4-6-6 17-120 38-255 87-371l2-5c6-15 24-58 40-63 18 13 31 31 36 52 6 15 12 31 17 47 12 42 31 82 54 119 47 67 112 88 169 54 52-30 68-88 81-138 4-14 7-26 11-38 28-85 47-93 52-94 10 4 19 13 22 23 25 48 42 99 51 152l4 19c5 21 10 43 16 65 13 56 27 114 36 172-14 15-28 29-44 42l0 0z m72-75c-8-50-20-99-32-147-5-22-11-43-15-64l-5-19c-9-56-27-111-53-161-9-23-31-39-56-40-37 4-61 61-79 116-5 13-8 27-12 41-12 46-25 94-65 118-61 35-108-20-125-45-22-35-39-72-50-111-6-16-12-32-18-48-8-31-29-57-58-72l-3-1-3 0c-39 0-60 52-74 84l-1 4c-43 113-72 231-86 351-10-12-19-25-28-39 1-1 2-1 2-2 4-4 6-8 7-13 3-20 6-41 9-62 22-148 44-302 100-438l2-5c8-19 28-68 47-73 21 14 36 36 42 60 7 18 13 36 19 54 14 47 35 92 61 134 52 76 123 100 187 62 57-34 74-99 89-156 4-16 8-30 12-44 31-95 52-107 60-108 13 5 23 15 27 28 28 54 47 113 57 173l8 35c48 215 66 293 77 321-12 24-27 46-43 67l0 0z m96-255l-1 6c1 0 1 0 0 1 0 8-1 15-2 22 0 3 0 6-1 9-2 18-6 36-11 54-1 4-2 8-3 11-1 4-2 8-4 11-1 5-3 9-4 14l-4 9c0 2-1 4-2 6-17-69-50-213-65-283l-8-35c-11-64-31-125-60-183-18-31-38-46-60-44-42 4-68 69-88 131-5 14-9 30-13 45-14 54-28 109-74 136-69 41-123-22-143-51-24-40-43-83-56-127-6-18-13-37-20-55-9-35-32-64-64-81l-3-1-3 0c-42 0-66 59-81 94l-2 5c-58 140-80 296-102 446-2 15-4 30-7 44-1-2-2-4-4-7-3-6-6-13-9-19 0-2-1-3-2-5-3-8-6-16-9-24-1-4-2-7-3-10-2-6-4-11-6-17l-3-9c-4-19-8-37-11-55 0-3 0-6-1-8-1-7-1-15-2-22l0-5c0-1-1-2-1-3 0-10-1-19-1-29 0-7 0-15 1-22l0-4c0-1 0-2 0-2 1-7 1-14 2-21 0-1 0-1 0-2 1-7 2-14 3-21 0-3 1-6 1-9 1-4 2-9 3-13 28-135 113-250 234-316l1-1c6-3 12-6 18-9 1 0 2-1 3-1 5-3 11-5 17-8l4-1c5-3 11-5 16-7 2-1 3-1 5-2 5-2 11-4 16-5 2-1 4-2 6-2 5-2 10-3 15-5 2 0 5-1 7-1 5-2 10-3 15-4 2 0 5-1 7-1 5-1 10-2 15-3 3-1 5-1 8-2 5 0 10-1 15-1 3-1 5-1 8-1 5-1 11-1 16-2 2 0 5 0 7 0 8-1 16-1 24-1 8 0 16 0 23 1 3 0 5 0 8 0 5 1 11 1 16 2 3 0 5 0 8 1 5 0 10 1 15 1 2 1 5 1 8 2 5 1 10 1 14 2 3 1 5 2 8 2 5 1 10 2 15 4 2 0 4 1 7 1 5 2 10 3 15 5 2 0 4 1 6 2 5 1 11 3 16 5 1 1 3 1 5 2 5 2 11 4 16 6 1 1 3 2 4 2 6 3 12 5 17 8 1 0 2 1 3 1 6 3 12 6 18 9l1 1c121 66 206 181 234 316 1 4 2 9 3 13 0 3 1 6 1 9 1 7 2 14 3 21 0 1 0 1 0 2 1 7 1 14 2 21 0 0 0 1 0 2l0 4c0 7 0 15 0 22 1 10 1 19 0 29l0 0z m-32-62c-7 0-13 4-16 10-2 6-1 13 4 18 5 5 12 6 18 4 6-3 10-9 10-16 0-9-7-16-16-16l0 0z m-34-150c-7 0-13 4-15 10-3 6-1 13 3 18 5 5 12 6 19 4 6-3 10-9 10-16 0-9-8-16-17-16l0 0z m-263-183c-9 0-16 8-16 17 0 9 7 16 16 16 10 1 17-7 17-16 0-9-7-17-17-17l0 0z m-50 184c-6 0-12 4-15 10-3 6-1 13 4 18 4 5 12 6 18 4 6-3 10-9 10-16 0-4-2-9-5-12-3-3-7-4-12-4l0 0z m-125-200c-30-1-57 18-69 46-12 28-5 60 16 82 22 21 54 28 82 16 28-12 46-39 46-69 0-20-7-39-22-54-14-14-33-22-53-22l0 1z m0 116c-17 0-32-10-38-25-7-16-3-34 9-46 12-12 30-15 45-9 16 7 26 22 26 39 0 23-19 41-42 41l0 0z m-362 99c-9 0-17 8-17 17 0 9 8 17 17 17 9 0 17-8 17-17 0-4-2-9-5-12-3-3-7-5-12-5l0 0z m-29 118c-7 0-13 4-16 10-2 6-1 14 4 18 4 5 12 7 18 4 6-2 10-9 10-15 0-5-1-9-5-12-3-3-7-5-11-5l0 0z" horiz-adv-x="1000" />

<glyph glyph-name="services-surgery" unicode="&#xe827;" d="M1000 350c0 8 0 16-1 24 0 3 0 6 0 9-1 5-1 10-1 16-1 3-1 6-2 10 0 4-1 9-1 13-1 4-2 7-2 11-1 4-2 9-2 13l-3 11c-1 4-2 8-3 12-1 3-2 8-3 12-1 3-2 7-3 11-1 4-2 8-3 12-2 3-3 7-4 10-1 4-3 8-4 12-1 1-1 2-2 4l-9 24 0-1c-81 182-262 298-461 297-198-1-377-120-456-303l0 0-2-6c-2-5-4-9-5-13-1-3-2-5-3-8-2-5-4-10-5-15-1-3-2-5-3-8-1-5-3-10-4-16-1-2-2-5-2-7-2-6-3-12-4-17-1-3-1-5-2-7-1-6-2-12-3-18-1-2-1-5-1-7-1-6-2-12-3-18 0-2 0-4 0-7-1-6-1-12-2-18 0-3 0-5 0-7-1-8-1-17-1-25 0-8 0-16 1-24 0-3 0-7 0-10 1-4 1-9 1-13 1-5 1-9 2-13 0-3 1-7 1-10 1-5 1-10 2-14 1-3 1-5 2-8 1-5 2-10 3-16 0-1 1-3 1-5 1-6 3-11 4-17 0-1 1-2 1-2 7-27 17-52 28-77l2-5c2-4 4-8 6-11 2-4 3-7 5-10 2-4 3-6 5-9 2-4 5-8 7-13 1-2 3-4 4-6 3-5 6-10 9-14 1-2 2-3 3-4 4-6 8-11 12-17 0 0 1-1 1-2 5-6 9-11 13-17l0 0 7-7 18-22 1 1c2-3 4-5 6-7l4-3c5-5 9-10 14-14 1-1 2-2 3-3 5-4 11-9 16-14 0 0 1 0 1 0 22-19 47-35 72-50 3-1 6-3 9-5 4-2 7-4 11-6 4-2 8-3 12-5l10-5c5-2 10-4 14-6l10-4c5-2 10-3 15-5l9-3c5-2 11-4 16-5l8-3c6-1 12-3 18-4 3-1 5-1 8-2 6-1 12-2 18-3 3-1 5-1 8-2 6-1 12-1 19-2 2-1 5-1 7-1 7-1 13-1 20-2 2 0 4 0 7 0 8-1 17-1 26-1 9 0 18 0 26 1 4 0 8 0 12 1 5 0 10 0 14 1 5 0 10 1 14 1 4 1 8 1 12 2 5 1 9 2 14 3 4 0 7 1 11 2 5 1 9 2 14 3 4 1 7 2 11 3 4 1 9 2 13 3 4 1 8 3 12 4 4 1 8 3 11 4 5 1 10 3 14 5 3 1 7 2 10 4 5 2 10 4 14 6 2 0 4 1 6 2l19 9 0 0c163 83 268 249 273 433l0 0 0 13z m-242-208c-2-2-5-4-9-4-3 0-6 2-9 4l-64 65c-5 5-5 13 0 18l63 63 39-38c6-6 16-6 23 0 6 6 6 17 0 23l-38 39 26 26 22-22c4-4 10-6 16-4 6 1 10 6 12 12 2 5 0 12-5 16l-21 22 26 26 38-38c7-7 17-7 24 0 6 6 6 17 0 23l-39 39 27 26 22-21c3-4 7-5 11-5 7 0 13 4 16 10 2 6 1 13-4 18l-22 22 32 31c0 0 0-1 0-1 4-10 6-21 9-31 0-2 1-4 1-6 3-10 5-20 6-30 0-1 1-2 1-3 1-10 3-21 3-32 1-2 1-5 1-7 1-10 1-21 1-31l0-1-208-209z m-121-38c-5 5-7 14-3 21l25 51 25-25 25-25-51-26c-7-3-16-2-21 4l0 0 0 0z m-137 713c189 0 359-114 431-289l-279-280c-10-10-15-24-13-38l-35-71c-7-14-7-31 0-45l-31-31c-42 47-66 107-68 170l0 2c19 70 21 143 7 214-13 39-40 72-76 92-55 31-121 34-178 9l-3-1c-1 0-1-1-2-1-5-2-9-3-13-4-7-4-15-3-22 1-43 14-89 20-134 16 80 157 241 256 416 256l0 0 0 0z m-12-862c7-7 17-7 24 0l60 60c16-17 33-33 51-47 10-9 20-18 30-28 7-7 14-15 21-23-2-1-5-2-7-3-3-1-7-3-10-4-4-1-8-3-12-4-3-1-6-2-9-3-5-1-9-2-14-4-2 0-5-1-8-2-5-1-10-2-15-3-2-1-4-2-7-2-5-1-10-2-16-3-2 0-4-1-6-1-6-1-11-1-17-2l-6-1c-6 0-12-1-17-1-2 0-4 0-6-1-8 0-16 0-24 0-8 0-16 0-25 1-1 0-3 0-4 0-7 0-14 1-20 1-2 0-3 1-5 1-6 1-13 2-19 3-2 0-4 0-5 1-7 1-13 2-19 3-2 0-4 1-5 1-7 2-13 3-18 5-3 0-5 1-7 2-5 1-11 3-16 4l-7 3c-5 2-10 3-15 5-3 1-6 2-9 4-4 1-8 3-13 5l-9 4c-4 2-8 4-12 6-3 2-7 3-10 5-4 2-6 4-9 5-4 3-8 5-12 7-3 2-5 3-7 5-5 2-9 5-13 8-2 1-3 2-5 3-5 4-10 7-15 11l-1 0c-23 18-45 38-64 59-1 1-1 1-1 2l-4 3 2 6c9 28 21 54 36 79 12 17 45 55 85 31 26-21 42-50 46-83 2-10 5-20 8-29 14-42 32-84 62-87 1-1 2-1 3-1 1 0 1 0 1 0 1 0 2 0 3 1 1 0 2 0 3 0 1 0 2 1 3 1l3 1c1 0 2 1 3 1 1 1 2 1 2 2 1 0 2 1 3 2 1 0 2 1 3 1 1 1 2 2 3 3 1 1 1 2 2 3 1 0 2 1 3 2 0 1 2 3 3 4 0 1 1 2 1 3 2 2 4 5 5 7 19 37 33 77 40 118l3 14c3 11 5 22 8 33 14-41 36-79 65-112l-62-62c-3-3-5-7-5-12 0-4 2-8 5-11l0 0 0 0z m-380 142c-1 2-3 5-4 7-6 9-11 18-16 28l-3 4c-10 21-20 43-27 65 0 1-1 2-1 2-4 12-7 23-10 35 0 0 0 0 0 0-3 12-5 24-7 36 0 0 0 1 0 1-2 12-4 23-5 34 0 2 0 5 0 7-1 11-1 22-1 34 0 8 0 15 0 23 0 2 0 4 0 7 1 5 1 11 2 16 0 3 0 5 1 7 0 5 1 11 2 16 0 2 0 5 1 7 1 5 2 10 3 15 0 3 1 5 1 8 1 5 2 10 4 14 0 3 1 5 2 8 1 5 2 9 4 14 0 3 1 5 2 8 2 5 3 9 5 14 1 2 2 5 3 7 1 3 2 5 3 8 2 1 4 1 6 2 45 9 92 5 135-12 14-6 30-6 44 0 3 1 7 3 11 4 2 1 4 2 5 2l2 1c48 21 103 19 148-6 29-16 51-42 62-73 13-65 10-133-7-198l-2-5c-4-22-10-43-15-64-4-16-7-32-11-47l-3-14c-7-38-19-74-36-108-3-6-7-11-12-15-1 0-14 3-34 65-3 9-5 18-8 27-5 42-27 79-61 103-3 2-6 4-9 5l-3 1c-3 1-5 2-7 3-1 0-2 0-4 1-2 0-5 1-7 1l-2 1c-4 0-7 0-11 0l0 0-1 0c-3 0-6 0-9 0-1 0-2-1-3-1-3 0-6-1-8-2-1 0-2 0-2 0-4-1-7-2-11-4l-2-1c-3-1-5-3-8-4l-3-2c-2-2-5-4-8-6 0 0-1 0-1-1-4-2-7-5-10-8 0-1-1-1-2-2-2-3-5-5-7-8-1-1-2-2-2-3-3-3-6-7-9-11-4-6-8-13-12-19-1-3-2-5-3-7-3-5-5-9-7-14-1-3-2-5-4-8-1-4-3-9-5-13-1-3-2-6-3-9 0-1-1-2-1-3-1 1-1 2-2 3-6 8-11 16-17 24l0 0 0 0z m597-166c-9 11-18 22-28 32-10 11-21 21-33 30-17 14-33 30-48 45l32 33c7-4 14-6 22-6 8 0 16 2 23 6l70 35c2-1 4-1 6-1 13 0 24 5 33 14l182 182c-17-160-115-300-259-370l0 0 0 0z" horiz-adv-x="1000" />

<glyph glyph-name="services-veneers" unicode="&#xe828;" d="M865 9c81 85 129 197 134 314l0 1c1 9 1 17 1 26 0 11 0 21-1 32 0 2 0 3 0 5-1 10-2 21-4 31l0 1 0 2c0 2 0 4-1 6l0 6-1 0c-38 226-224 397-452 415-228 19-439-119-514-336l0 0-4-14c-1-1-1-3-2-5-2-8-5-17-7-26-1-3-1-7-2-10-2-10-4-21-6-31 0-1 0-2-1-3-1-10-2-21-3-31 0-3 0-6-1-8 0-12-1-23-1-34 0-124 46-244 130-336 0 0 0 0 0 0 5-6 10-11 16-16 0-1 1-2 1-2l0-1 7-6c1-1 2-2 3-3l15-14 0 1 7-7c3-1 5-3 7-5 4-3 8-7 13-10 2-1 4-3 6-4 4-4 9-7 13-10 2-1 4-3 6-4 5-3 10-6 15-9 1-1 3-2 5-3 5-3 10-6 15-9 2-1 4-2 6-3 5-3 10-6 16-8l5-3c6-3 11-5 16-7l7-3c5-2 10-4 15-6l7-3c5-2 10-3 16-5 2-1 5-2 8-2 5-2 9-4 14-5 3 0 6-1 9-2 5-1 10-2 15-3 3-1 6-2 9-2 5-1 10-2 14-3 4 0 7-1 10-2 5 0 10-1 15-1 3-1 6-1 10-2 5 0 10-1 16-1 3 0 5 0 8-1 9 0 17 0 25 0 8 0 17 0 25 1 3 0 5 0 7 0 6 0 12 1 18 1 3 1 5 1 7 1 6 1 12 2 18 3 2 0 4 0 6 0 6 2 13 3 19 4l4 1c7 1 14 3 21 5l1 0c8 2 15 4 23 6 0 0 0 0 0 0 38 12 75 29 110 50l1 1c6 4 13 8 19 12 1 1 2 1 3 2 5 4 11 8 16 11l6 5c4 3 8 7 12 10 3 2 6 5 9 7 3 3 6 6 9 8 3 2 5 4 7 6l0 0 10 9c2 2 3 4 5 6l10 9-1 1z m-183-89l0 0c-7-3-14-6-21-8 0 0-1-1-2-1-6-2-12-4-19-6-1-1-2-1-3-1-6-2-12-4-18-5l-5-2c-5-1-11-2-16-4l-6-1c-6-1-11-2-16-3-3 0-5-1-7-1-5-1-11-1-16-2-2 0-5 0-7-1-5 0-11 0-16-1-2 0-5 0-7 0-8-1-15-1-23-1-8 0-15 0-23 1-2 0-5 0-8 0-5 1-9 1-14 1l-10 1c-4 1-8 1-13 2l-9 2c-4 0-9 1-13 2-3 0-6 1-9 2-4 1-9 2-13 3-3 0-6 1-9 2-4 1-9 2-13 4l-8 2c-4 2-9 3-14 5-2 1-4 1-6 2-5 2-11 4-16 6-1 1-3 2-5 2-5 3-11 5-17 8l-2 1c-27 13-53 29-77 47l-2 2c-5 3-10 7-15 11-2 2-4 3-6 5-3 3-6 5-9 8 1 1 1 1 1 2 3 6 6 13 8 20 2 10 5 20 8 31 1 3 2 6 3 10 2 9 4 18 6 28 2 5 3 9 4 14 0 3 1 6 2 9l68 0c1-3 2-6 3-9 2-6 3-12 5-18 2-7 4-14 7-21 34-97 78-102 196-102 73 0 159 12 185 105 3 9 5 19 8 29 1 5 3 10 4 16 0 0 0 0 0 0l62 0c0-2 1-4 2-7 1-6 3-12 5-18 3-8 6-16 8-23 1-2 2-3 2-5 3-7 6-14 9-20 1-2 2-3 2-4 3-5 6-11 10-16 1-1 1-2 2-3 4-5 8-10 13-14 0-1 0-1 1-2-5-5-11-10-16-14-35-29-74-52-116-70l0 0 1 0z m-646 382c0 0 0 0 0 0-1 7-1 14-2 21 0 1 0 2 0 3 0 8-1 16-1 24 0 9 1 19 1 28 1 3 1 6 1 9 1 7 1 13 2 20 0 3 1 6 1 9 1 8 3 16 4 24 1 3 1 5 2 8 1 7 3 15 5 22 0 1 1 3 1 4 24-5 48-12 71-20 60-19 99-77 95-140-5-70-16-140-32-208 0-2-1-5-1-7-2-8-4-17-6-26-1-3-2-6-3-9-3-10-5-20-8-30-1-3-2-5-3-7-2 3-5 6-8 9 0 0 0 0 0 1-67 73-109 166-119 265l0 0 0 0z m635-152l-1-5c-1-3-2-7-3-10-2-9-4-17-6-26-3-9-5-19-8-29-16-56-61-80-153-80-118 0-142 3-171 99-3 8-5 17-7 25-1 4-2 8-3 13l0 3c-13 69-20 139-19 209-1 63 114 171 180 183 4 1 7 1 11 1 2 0 4 0 6 0 62-11 205-123 203-183-4-68-13-135-29-200l0 0 0 0z m296 200c0-8 0-16-1-24 0-1 0-3 0-5-1-6-1-12-2-18 0-1 0-3 0-4-1-7-2-13-3-20 0 0 0-1 0-1-15-94-58-182-124-251l-2 3c-1 0-2 1-3 2-1 2-3 3-4 5-1 1-1 1-1 2-2 3-4 5-6 8-1 1-1 2-2 3-1 2-2 5-3 7-1 1-2 3-2 4-2 2-3 5-4 7 0 2-1 3-2 5-1 3-2 6-3 9-1 1-2 3-2 4-2 5-3 10-5 16-2 6-4 12-6 19-1 4-2 9-4 15-15 71-22 143-21 215-1 36 48 41 123 45 11 1 21 1 31 2 14 1 28 2 43 2 2-17 3-33 3-50l0 0 0 0z m-467 466c226 0 419-161 459-383-13-1-27-1-40-2-10-1-20-1-30-2-73-4-156-8-155-78-1-68 5-135 17-201l-46 0c15 65 25 131 29 198 3 84-160 205-231 217-10 2-20 2-29 0-81-15-208-136-207-216-1-67 5-134 16-199l-55 0c11 53 18 108 22 162 4 78-44 149-118 173-23 9-47 15-72 21 67 186 243 310 440 310l0 0 0 0z" horiz-adv-x="1000" />

<glyph glyph-name="check" unicode="&#xe829;" d="M950 581l-42 42c-18 17-47 17-65 0l-451-439-236 230c-18 17-46 17-64 0l-43-42c-8-8-13-19-13-31 0-12 5-23 13-32l311-303c18-17 47-17 65 0l526 512c8 8 13 20 13 31 0 12-5 24-14 32l0 0z" horiz-adv-x="1000" />

<glyph glyph-name="soc-google" unicode="&#xe82a;" d="M838 420l0 114-74 0 0-114-112 0 0-76 112 0 0-114 74 0 0 114 112 0 0 76-112 0 0 0z m-287-129l-41 31c-18 11-30 31-30 53 2 25 16 48 37 60 59 35 95 96 97 164-1 58-28 112-74 148l63 0 45 53-231 0c-164 0-246-106-246-220 0-49 20-96 55-130 35-35 82-53 131-52l30 0c-7-16-13-33-15-50 0-29 12-56 34-76-77-2-153-23-220-60-52-29-84-82-86-141 0-87 78-171 246-171 201 0 298 114 298 224-2 68-37 130-93 167l0 0z m-283 346c0 83 48 121 100 121 97 0 150-133 150-209 2-30-8-60-29-82-20-23-49-35-80-35-93 0-141 117-141 205l0 0z m134-684c-123 0-201 57-201 141 3 56 42 105 97 121 40 11 81 18 123 19l26 0c89-64 126-91 126-152 0-72-70-129-171-129l0 0z" horiz-adv-x="1000" />

<glyph glyph-name="soc-youtube" unicode="&#xe82b;" d="M594 199c-10 0-20-5-27-12l0-173c7-7 17-12 27-12 16 0 24 12 24 38l0 121c0 25-8 38-24 38l0 0z m200 0c-18 0-27-13-27-39l0-26 54 0 0 26c0 26-9 39-27 39l0 0z m114 195c-25 23-57 35-91 35-126 9-316 9-316 9l0 0c0 0-189 0-316-9-33 0-65-12-90-35-19-24-32-53-36-84-6-45-9-90-9-136l0-64c0-46 3-91 9-136 4-31 17-60 36-84 28-23 63-36 99-36 73-6 307-8 307-8 0 0 190 0 316 9 34 0 66 12 91 35 19 24 31 53 36 84 5 45 8 90 9 136l0 64c-1 46-4 91-9 136-5 31-17 60-36 84l0 0z m-659-435l-61 0 0 326-64 0 0 54 190 0 0-54-65 0 0-326 0 0 0 0z m216 0l-55 0 0 31c-15-20-38-33-63-35-15-2-29 7-35 21-4 14-5 28-5 42l0 224 55 0 0-208c0-7 0-14 0-20 0-4 2-7 4-9 3-2 6-3 9-3 15 2 28 11 35 24l0 216 54 0 0-283 0 0 1 0z m208 85c0-19-1-38-6-57-5-20-23-33-44-32-22 1-43 13-56 31l0-27-55 0 0 380 55 0 0-124c13 18 34 30 56 31 21 1 39-13 44-32 5-19 6-38 6-57l0-113 0 0z m203 47l-109 0 0-50c0-26 9-39 28-39 12-1 23 8 24 21 1 11 2 23 1 34l56 0 0-7c0-16-1-28-1-33-2-11-6-22-13-31-15-21-40-32-66-31-25-1-50 10-66 29-13 20-20 44-18 67l0 99c-2 24 4 47 17 67 16 19 40 30 66 29 25 1 49-10 64-29 13-20 19-43 17-67l0-59 0 0 0 0z m-519 375l0 156 74 228-62 0-42-151-44 151-64 0c13-36 26-71 39-107 15-39 28-80 38-121l0-156 61 0 0 0z m144-4c25-1 49 10 64 29 13 20 19 44 17 68l0 100c2 23-4 47-17 67-16 19-40 29-64 29-25 0-48-10-65-29-13-20-19-44-17-67l0-100c-2-24 4-48 17-68 16-19 40-30 65-29l0 0z m-27 207c0 27 9 40 27 40 18 0 26-13 26-40l0-120c0-26-8-40-26-40-18 0-27 14-27 40l0 120 0 0z m310-203l0 286-55 0 0-218c-8-13-21-22-35-25-4 0-7 1-9 4-3 2-4 5-4 8-1 7-1 14-1 20l0 211-55 0 0-226c-1-15 1-29 5-43 6-14 20-23 36-21 25 2 47 15 63 35l0-31 55 0 0 0z" horiz-adv-x="1000" />

<glyph glyph-name="phone" unicode="&#xe82c;" d="M723 816c-43-42-84-84-125-125-21-19-33-46-33-75 0-28 12-55 33-75l6-5c22-22 45-45 67-67-2-5-4-9-7-14-4-9-9-19-15-28-46-71-103-134-170-187-30-25-63-46-99-63-19 20-38 39-57 58l-14 14c-19 22-47 35-76 35-29 0-57-13-76-35-15-14-29-28-43-42l-38-38c-14-14-29-29-43-43-21-20-33-47-33-75 0-29 12-56 33-75 11-11 21-22 31-32 16-15 31-30 46-46 27-28 64-45 103-48 57-2 114 8 167 30 105 40 201 98 286 172 116 96 210 216 275 351 33 63 53 131 58 201 0 4 1 9 1 13 2 49-19 96-55 129-16 14-30 29-46 45-8 8-16 16-24 24-19 22-47 35-76 35-29 0-57-12-76-34l0 0 0 0z m112-40c8-8 16-16 24-24 15-16 31-33 49-48 27-24 40-60 36-97-5-62-23-123-53-179-62-128-151-242-260-334-80-69-172-124-270-162-45-19-94-28-143-26-26 1-50 12-67 31-16 16-32 32-47 47-10 10-21 20-31 31-10 9-16 22-17 35 1 14 7 27 17 36 14 15 29 29 43 43 7 7 13 13 20 20l60 61c9 11 23 18 37 18 15 0 29-7 37-18 5-5 10-10 15-15 20-20 41-41 61-62 13-14 34-18 51-10 43 19 83 43 118 73 72 57 133 124 182 201 7 11 13 22 18 33 3 7 6 13 10 19 4 7 6 14 6 22-1 13-6 24-15 33-24 23-48 47-72 71l-5 5c-10 9-17 22-17 36 0 13 7 26 17 35 40 41 82 83 124 125 8 11 22 18 36 18 15 0 28-7 37-18l0 0-1 0z" horiz-adv-x="1000" />

<glyph glyph-name="metro" unicode="&#xe82d;" d="M0-74l0-76 523 0 0 76-102 0 118 291 188-367 188 367 119-291-102 0 0-76 523 0 0 76-90 0-380 920-258-518-257 522-380-924z" horiz-adv-x="1455" />

<glyph glyph-name="chevron-circled-left" unicode="&#xe82e;" d="M0 350c0 276 224 500 500 500 276 0 500-224 500-500 0-276-224-500-500-500-276 0-500 224-500 500l0 0z m927 0c0 236-191 427-427 427-236 0-427-191-427-427 0-236 191-428 427-428 236 1 427 192 427 428l0 0z m-606 0l220 220c14 14 37 14 51 0 15-14 15-37 1-51l-169-169 169-168c14-15 14-38-1-52-14-14-37-14-51 0l-220 220z" horiz-adv-x="1000" />

<glyph glyph-name="chevron-circled-right" unicode="&#xe82f;" d="M1000 350c0 276-224 500-500 500-276 0-500-224-500-500 0-276 224-500 500-500 276 0 500 224 500 500l0 0 0 0z m-927 0c0 236 191 427 427 427 236 0 427-191 427-427 0-236-191-428-427-428-236 1-427 192-427 428l0 0 0 0z m606 0l-220 220c-14 14-37 14-51 0-14-14-15-37-1-51l169-169-169-168c-14-15-13-38 1-52 14-14 37-14 51 0l220 220 0 0z" horiz-adv-x="1000" />

<glyph glyph-name="chevron-circled-up" unicode="&#xe830;" d="M500 850c-276 0-500-224-500-500 0-276 224-500 500-500 276 0 500 224 500 500 0 276-224 500-500 500l0 0 0 0 0 0z m0-927c-236 0-427 191-427 427 0 236 191 427 427 427 236 0 428-191 428-427-1-236-192-427-428-427l0 0 0 0 0 0z m0 606l-220-220c-14-14-14-37 0-51 14-14 37-15 52-1l168 169 169-169c14-14 37-13 51 1 14 14 14 37 0 51l-220 220 0 0 0 0z" horiz-adv-x="1000" />

<glyph glyph-name="chevron-circled-down" unicode="&#xe831;" d="M500-150c-276 0-500 224-500 500 0 276 224 500 500 500 276 0 500-224 500-500 0-276-224-500-500-500l0 0 0 0 0 0 0 0z m0 927c-236 0-427-191-427-427 0-236 191-427 427-427 236 0 428 191 428 427-1 236-192 427-428 427l0 0 0 0 0 0 0 0z m0-606l-220 220c-14 14-14 37 0 51 14 15 37 15 52 1l168-169 169 169c14 14 37 14 51-1 14-14 14-37 0-51l-220-220 0 0 0 0 0 0z" horiz-adv-x="1000" />

<glyph glyph-name="services-whitening" unicode="&#xe832;" d="M988 242c0 1 1 2 1 3 2 11 4 22 6 33 0 1 0 2 0 4 2 9 3 18 3 28 1 2 1 5 1 8 1 10 1 21 1 32 0 8 0 16-1 24 0 3 0 7 0 10-1 5-1 9-1 14-1 4-1 8-2 12 0 4-1 7-1 11-1 4-1 9-2 14-1 3-1 6-2 8-1 5-2 10-3 15 0 3-1 5-2 8-1 5-2 10-4 15 0 2-1 5-1 7-2 5-3 10-5 15-1 2-2 5-2 7-2 5-4 10-6 15-1 2-1 4-2 7-2 5-4 9-6 14-1 3-3 6-4 9-2 4-4 8-6 12-3 7-7 14-10 21-1 0-1 1-1 2-4 6-8 12-11 19-1 0-1 1-2 1-3 7-7 13-11 19-1 0-1 1-1 1-5 6-9 13-13 19l-1 1c-5 6-9 12-14 17 0 1-1 1-1 2-3 3-6 7-9 11l-7 7 0 0c-90 99-217 158-351 163-133 5-264-44-361-137l-1 1-10-11c-81-81-132-187-143-300 0-1 0-1-1-2 0-7-1-14-1-21 0-2-1-3-1-5 0-8 0-16 0-25 0-9 0-18 1-26 0-4 0-8 1-12 0-4 0-9 1-14 0-4 1-9 2-14 0-4 0-7 1-11 1-5 2-10 3-14 0-4 1-8 2-12 1-3 2-8 3-13 1-4 2-8 3-12 1-4 2-8 3-12 1-4 3-8 4-13 1-3 2-7 4-10 1-5 3-10 5-14 1-3 2-7 4-10 1-5 3-9 5-14 1-2 2-3 3-5l4-11 0 0c89-184 282-296 486-282 204 15 379 152 442 347l0 0 3 11c0 1 0 2 0 3 3 10 6 20 8 30l0 0 0 0z m-22 80c0-2-1-5-1-7 0-7-1-15-2-22 0-2 0-4-1-7-1-8-2-17-4-26 0 0 0-1 0-1-2-10-4-19-7-29 0 0 0 0 0 0-53-4-105 19-137 62-38 55-36 149-21 219l1 2c7 34 26 124 63 137 1 0 1-1 2-2 7-8 14-17 20-26 2-3 4-5 5-7 6-9 13-19 18-28l4-7c5-10 11-20 16-31 1-1 1-3 2-4 10-23 19-47 26-72 0-1 0-2 1-2 3-12 5-25 8-37 0-1 0-3 1-4 2-12 3-25 4-37 0-1 1-3 1-5 1-12 1-25 1-38 0-9 0-18 0-28l0 0 0 0z m-132 354c-41-25-59-95-70-140-2 11-5 20-7 27-9 32-23 62-42 89-26 34-64 57-106 64-30 0-59-6-86-17-21-9-44-14-67-16-14 0-29 1-45 3-34 5-69 4-103-4-42-13-65-72-77-121-4 16-7 31-11 45-7 30-21 59-39 84 185 174 476 168 653-15l0 0 0 1z m-330-427c-14 7-110 57-110 134 0 9-8 16-17 16-9 0-16-7-16-16 0-70 56-119 95-145-1 0-2-1-3-1-65-21-137 1-179 54-21 36-31 76-30 117 0 12 0 24 1 37l0 1 0 2c0 2 0 5 0 7 1 19 4 38 8 56l0 2c8 34 27 126 65 138 13 3 27 5 40 5 16 0 33-2 49-3 17-2 33-3 49-3 26 2 53 7 78 17 23 10 48 16 73 16 32-7 61-25 81-52 17-24 29-50 37-78 12-40 49-175 0-256-19-31-52-52-88-57-28-5-57-6-85-2-7 2-15 3-22 5-9 3-18 5-26 6l0 0 0 0z m-287 91l0-4c-5-53-30-103-70-139-23-16-49-26-77-29-6 14-11 29-16 44-1 4-2 8-3 13-1 3-2 6-3 9-2 6-3 12-4 19-1 1-1 2-1 3-2 7-3 14-4 21 0 1 0 1 0 2-1 7-2 14-3 21 0 1 0 2 0 3-1 6-1 13-2 20 0 1 0 2 0 3 0 8 0 16 0 24 0 8 0 16 0 23 0 2 0 4 0 6 1 6 1 12 2 18 0 2 0 3 0 5 1 6 2 12 3 18 0 1 0 2 0 3 1 7 3 14 4 20 0 1 0 1 0 2 18 83 57 159 115 221 14-21 24-45 30-69 13-47 21-95 24-143-1-16-2-32-1-49-1-22 1-44 6-66l0 0 0 1z m283-457c-175 0-335 98-415 254 29 5 57 16 81 33 35 30 61 69 74 113 2-4 4-7 6-10 37-50 96-78 158-77 20 0 41 3 60 10 5 1 10 4 15 6 5 4 11 5 18 5 8-2 16-3 24-6 9-2 18-4 27-6 31-4 63-4 95 2 46 6 87 33 111 73 5 9 10 19 14 29 4-13 11-25 18-36 36-49 94-78 154-77-65-187-242-313-440-313l0 0 0 0z" horiz-adv-x="1000" />

<glyph glyph-name="services-cleaning" unicode="&#xe833;" d="M391 428l-23 0-36 36 0 23c0 8-7 15-15 15-8 0-15-7-15-15l0-23-35-36-24 0c-8 0-15-7-15-15 0-8 7-15 15-15l24 0 35-35 0-24c0-8 7-15 15-15 8 0 15 7 15 15l0 24 36 35 23 0c8 0 15 7 15 15 0 8-7 15-15 15l0 0z m-74-38l-23 23 23 24 24-24-24-23z m459-229l-23 0-36 36 0 24c0 8-6 14-15 14-8 0-14-6-14-14l0-24-36-36-24 0c-8 0-15-6-15-14 0-9 7-15 15-15l24 0 36-36 0-23c0-9 6-15 14-15 9 0 15 6 15 15l0 23 36 36 23 0c9 0 15 6 15 15 0 8-7 14-15 14l0 0z m-74-38l-23 24 23 23 24-23-24-24z m-202 727c-211 0-400-133-471-332-71-199-9-421 154-555 13-10 26-19 39-28 38-26 80-46 123-60 10-3 19-6 29-9 85-22 174-21 258 2 10 2 19 5 28 9 43 14 83 34 120 59 13 9 25 18 37 27 163 134 225 357 154 555-71 199-260 332-471 332l0 0z m0-960c-38 0-76 5-113 14 10 29 23 57 40 83 17 26 65 82 126 46 41-25 54-74 66-121 1-2 1-4 2-6-40-11-80-16-121-16l0 0z m149 25c0 1-1 3-1 4-13 51-28 109-80 139-56 34-120 13-166-55-18-28-33-59-44-91-56 18-108 47-153 85-19 80-31 163-43 244-3 18-6 37-8 55-15 100 15 216 117 252 18 6 36 9 55 8 45-2 90-10 134-24 95-54 95-77 94-174l0-19c0-8 7-15 15-15 8 0 15 7 15 15l0 19c0 85 0 125-67 173 4 2 9 4 15 6 2 1 4 2 7 3l2 1c67 30 145 27 210-10 41-23 72-61 87-106 31-116-2-255-32-377-4-18-8-35-12-52-43-36-92-63-145-81l0 0z m184 118c1 3 1 5 2 8 30 126 64 268 32 392-17 52-53 96-100 123-73 42-161 46-238 12l-2-1c-2-1-3-1-5-2-7-2-12-4-16-6-12-6-25-5-36 1-65 19-146 38-209 16-85-30-160-130-137-284 3-18 6-37 9-55 9-68 19-136 33-203-173 182-168 469 11 645 180 176 467 175 646-1 179-176 183-463 10-645l0 0z" horiz-adv-x="1000" />

<glyph glyph-name="files-pdf" unicode="&#xe834;" d="M767-3v-147h-767v1000h540l227-216v-130h137v-507h-137z m55 424h-575v-341h575v341z m-414-69a58 58 0 0 0 18-14 69 69 0 0 0 12-20 61 61 0 0 0 5-22 68 68 0 0 0-4-23 65 65 0 0 0-12-20 56 56 0 0 0-18-13 48 48 0 0 0-23-6h-44v-62h-35v185h77a48 48 0 0 0 24-5z m-66-26v-60h42a21 21 0 0 1 16 8 34 34 0 0 1 7 22 38 38 0 0 1-2 13 33 33 0 0 1-6 9 26 26 0 0 1-8 6 21 21 0 0 1-9 2h-40z m231 24a82 82 0 0 0 28-19 89 89 0 0 0 17-30 114 114 0 0 0 6-36 111 111 0 0 0-6-38 80 80 0 0 0-19-29 87 87 0 0 0-28-19 102 102 0 0 0-37-7h-67v185h67a100 100 0 0 0 39-7z m-70-24v-122h31a60 60 0 0 1 23 4 48 48 0 0 1 17 13 57 57 0 0 1 11 20 80 80 0 0 1 3 24 80 80 0 0 1-3 25 57 57 0 0 1-11 19 47 47 0 0 1-17 12 59 59 0 0 1-23 5h-31z m272 0h-88v-48h73v-29h-73v-77h-35v185h123v-31z" horiz-adv-x="905" />

<glyph glyph-name="files-doc" unicode="&#xe835;" d="M768-4v-146h-767v1000h539l228-216v-131h137v-507h-137z m55 424h-576v-341h576v341z m-431-80a69 69 0 0 0 26-19 76 76 0 0 0 16-28 103 103 0 0 0 5-33 101 101 0 0 0-6-36 76 76 0 0 0-17-27 78 78 0 0 0-26-18 91 91 0 0 0-35-6h-62v173h62a89 89 0 0 0 37-6z m-66-138h29a52 52 0 0 1 22 5 49 49 0 0 1 16 12 53 53 0 0 1 9 18 79 79 0 0 1 0 46 52 52 0 0 1-10 18 43 43 0 0 1-16 12 61 61 0 0 1-21 4h-29v-115z m153 119a84 84 0 0 0 26 20 79 79 0 0 0 34 7 73 73 0 0 0 34-8 90 90 0 0 0 26-20 100 100 0 0 0 17-29 91 91 0 0 0 6-32 88 88 0 0 0-7-33 91 91 0 0 0-17-28 82 82 0 0 0-26-19 79 79 0 0 0-68 0 83 83 0 0 0-26 20 92 92 0 0 0-23 61 87 87 0 0 0 6 33 92 92 0 0 0 18 28z m13-83a55 55 0 0 1 10-18 47 47 0 0 1 15-14 44 44 0 0 1 21-5 44 44 0 0 1 22 6 47 47 0 0 1 15 13 55 55 0 0 1 10 19 67 67 0 0 1 3 21 69 69 0 0 1-3 21 57 57 0 0 1-10 19 51 51 0 0 1-16 13 43 43 0 0 1-21 5 45 45 0 0 1-21-6 49 49 0 0 1-16-12 65 65 0 0 1-9-19 73 73 0 0 1-4-21 69 69 0 0 1 4-22z m167 82a88 88 0 0 0 27 20 85 85 0 0 0 36 8 76 76 0 0 0 40-11 63 63 0 0 0 26-27l-25-19a39 39 0 0 1-9 13 40 40 0 0 1-10 8 50 50 0 0 1-12 4 51 51 0 0 1-11 2 45 45 0 0 1-22-6 44 44 0 0 1-16-13 55 55 0 0 1-9-18 70 70 0 0 1 0-43 58 58 0 0 1 11-19 54 54 0 0 1 15-13 42 42 0 0 1 21-5 55 55 0 0 1 12 2 52 52 0 0 1 12 4 56 56 0 0 1 10 9 36 36 0 0 1 8 12l27-16a56 56 0 0 0-11-18 77 77 0 0 0-18-12 75 75 0 0 0-20-8 84 84 0 0 0-21-3 72 72 0 0 0-33 8 92 92 0 0 0-27 21 98 98 0 0 0-17 28 91 91 0 0 0 0 64 84 84 0 0 0 16 28z" horiz-adv-x="905" />

<glyph glyph-name="checkbox" unicode="&#xe836;" d="M233 622l-233-230 467-459 700 689-234 228-466-458-234 230z" horiz-adv-x="1167" />

<glyph glyph-name="soc-vk" unicode="&#xe837;" d="M555-100l-405 0 0 850c0 0 453 0 453 0 126 0 196-96 198-194 0-139-123-182-123-182 0 0 172-17 172-207 0-274-295-267-295-267z m-61 704l-123 0 0-182 123 0c0 0 83-7 83 91 0 99-83 91-83 91z m29-328l-152 0 0-218 152 0c0 0 107 0 107 109 0 109-107 109-107 109z" horiz-adv-x="1000" />

<glyph glyph-name="soc-instagram" unicode="&#xe838;" d="M505 553c44 0 87-14 123-39l322 0 0 62c0 124-101 224-225 224l-450 0c-124 0-225-100-225-224l0-62 331 0c36 25 79 39 124 39l0 0z m184 111c0 14 11 25 25 25l77 0c14 0 25-11 25-25l0-77c0-14-11-25-25-25l-77 0c-14 0-25 11-25 25l0 77 0 0z m29-324c0-118-95-214-213-214-118 0-214 96-214 214 0 31 7 62 20 90l-261 0 0-306c1-124 101-224 225-224l450 0c124 0 225 100 225 224l0 307-252 0c13-29 20-60 20-91l0 0z" horiz-adv-x="1000" />

<glyph glyph-name="soc-facebook" unicode="&#xe839;" d="M717 350l-125 0 0-450-210 0 0 450-82 0 0 152 82 0 0 96c-1 127 54 202 208 202l157 0 0-151-91 0c-60 0-64-22-64-62l0-85 142 0-17-152z" horiz-adv-x="1000" />

<glyph glyph-name="info" unicode="&#xe83a;" d="M576 580c0-37-31-68-68-68l-11 0c-38 0-68 31-68 68l0 11c0 38 30 68 68 69l11 0c37-1 68-31 68-69l0-11z m-6-470c0-37-30-68-68-68-37 0-68 31-68 68l0 262c0 38 31 68 68 68 38 0 68-30 68-68l0-262z" horiz-adv-x="1000" />

<glyph glyph-name="dz-cross" unicode="&#xe83b;" d="M714 493l-71 71c0 0-143-143-143-143 0 0-143 143-143 143l-71-71 143-143-143-143 71-71 143 143 143-143 71 71-143 143 143 143z" horiz-adv-x="1000" />

<glyph glyph-name="dz-check" unicode="&#xe83c;" d="M387 464l-101-102 202-201 101 100 202 203-101 100-202-202c0 1-101 102-101 102z" horiz-adv-x="1000" />

<glyph glyph-name="services-removing-2" unicode="&#xe83d;" d="M500 850c-254 0-468-191-497-444-28-253 138-487 386-543 10-3 21-4 32-6 17-3 35-5 53-6 9 0 17-1 26-1 2 0 4 0 6 0 58 1 115 12 169 32 11 4 21 9 32 13 17 8 34 17 51 27 10 7 21 13 30 20 178 126 255 352 189 560-66 207-259 348-477 348l0 0z m-76-957c13 141 38 279 81 360 10-17 23-31 39-41-38-104-60-213-67-324-18 1-36 3-53 5l0 0z m173 631c0 3-1 6-1 8 42-29 66-77 66-128l0-93c-3-43-35-77-77-83l-13 6c-1 1-2 1-4 2-13 8-23 21-26 37 0 33 16 64 44 82 0 0 0 0 0 1 3 2 5 5 8 8 1 2 2 4 3 6 1 2 2 3 3 4 0 0 0 1 0 1 1 3 2 6 3 10l0 2c1 3 1 6 1 8 1 1 1 2 1 2l0 1c0 4-1 7-1 11-1 4-2 7-4 11 0 0 0 1-1 2-1 3-2 5-4 8 0 0-1 1-1 2-2 3-4 6-7 8l-1 2c-3 2-6 5-9 7-1 0-1 0-1 0-2 1-4 2-6 3l-2 1c0 0 0 0-1 0l-1 1c-1 0-3 1-4 1-1 5-1 9-2 13 0 0 1 0 1 1 3 1 6 3 9 5 2 1 3 2 4 3 2 1 4 3 6 5 1 1 3 2 4 4 1 2 3 4 4 7 1 1 2 2 3 3 2 4 3 8 4 13 1 2 1 4 1 6 1 2 1 4 1 5 0 2 0 3 0 5l0-1z m-33-7c-1-3-2-5-3-7-1-1-1-1-1-2-2-2-3-4-5-5 0 0 0 0-1-1-4-3-9-5-15-6l0 0c-3 0-5 0-8 1-85 25-177 9-248-45-9-6-20-6-29 0-9 5-14 15-13 26 1 7 5 14 12 19 55 42 123 65 193 65 33 0 66-4 98-12 7-2 13-6 16-12 3-5 5-10 4-16 0-2 0-3 0-5l0 0z m-10-94l1 0c3-1 5-3 8-5l1-1 0 0c2-2 3-4 4-6 1 0 1-1 1-1 1-2 2-5 3-7 0-2 0-5 0-7l0-2c0-2-1-4-2-6 0-2-1-3-2-5 0 0 0 0 0 0-1-1-3-3-4-4-83-75-175-116-240-108-9 2-17 8-20 17-4 9-1 20 6 27l4 4c3 4 8 6 13 5 2 0 3 0 5 0 39-6 114 21 195 95 8 6 18 8 27 5l0-1z m-44-536c6 105 27 209 62 308 13 0 25 2 38 6 33-90 54-185 62-281-52-21-107-32-163-33l1 0z m193 47c-9 95-30 188-63 278 16 10 29 24 39 40 41-92 66-190 74-290-16-10-33-20-50-28l0 0z m80 50c-15 115-42 236-90 308 1 6 2 12 2 18l0 94c0 84-56 159-137 182l-15 4c-6 2-12 0-16-4-102 22-209-1-293-63-21-15-30-42-22-67 8-24 30-41 56-41 12 0 24 4 34 11 63 48 146 63 222 39 1 0 2 0 3 0 0-3 1-7 2-10-9-2-17-7-24-13-69-62-138-91-169-86-17 3-34-3-46-15l-4-4c-15-16-20-39-13-60 7-20 25-35 46-38 8-1 15-1 23-1 50 2 99 17 143 43-56-91-81-250-93-381-211 50-359 239-357 456 3 216 155 403 366 448 212 46 427-61 519-257 91-197 34-430-137-563l0 0z" horiz-adv-x="1000" />

<glyph glyph-name="services-diagnosis" unicode="&#xe83f;" d="M626 430c-62 0-116-44-128-105-12-61 21-122 78-145 57-24 123-4 158 48 34 51 27 120-17 164-24 24-57 38-91 38l0 0z m-72-59c40 39 103 39 143 0 5-6 10-12 14-18l-171 0c4 6 9 12 14 18l0 0z m172-72l-131 0c-8 0-15-6-15-15 0-8 7-14 15-14l126 0c-16-52-70-81-122-67-52 14-84 68-71 120l195 0c2-8 3-16 3-24l0 0z m-226 551c-233 0-436-161-487-389-52-228 61-461 271-561 13-7 27-13 41-18 27-10 56-18 85-24 10-1 20-3 31-4 42-6 84-5 126 1 10 1 20 3 30 5 30 6 60 14 88 26 14 6 28 12 41 19 51 25 96 59 135 100 7 7 14 15 20 22 5 6 10 13 15 19 6 8 12 16 18 24 104 153 114 351 28 515-87 163-257 265-442 265l0 0z m0-963c-21 0-43 1-64 5-5 56-2 113 21 143 11 15 29 23 47 22 18 1 36-7 46-22 23-30 26-86 21-142-23-4-47-6-71-6l0 0z m101 11c4 58 0 119-27 155-17 22-43 34-70 33-28 1-54-11-71-34-27-36-31-97-27-156-36 8-71 20-104 36-30 78-47 162-49 247 81-26 166-40 251-40 11 0 23 0 34 1 67-37 149-28 206 21 1-1 2-1 2-2l8-8c-4-73-20-146-46-215-34-17-70-30-107-38l0 0z m153 531c-45 47-113 65-176 49-64-17-113-67-130-130-17-64 2-131 49-177 0-1 1-2 2-3-37 1-75 4-112 10l-39 98c-2 5-6 8-11 9-6 1-11-1-14-5-4-5-4-10-2-15l32-81c-35 6-69 16-103 27l-64 201c-15 47-6 98 23 138 29 40 76 63 125 63l3 0c31 0 59-16 75-43 20-32 54-51 92-51 38 0 73 19 92 51 16 27 44 43 75 43l3 0c50 0 96-23 125-63 30-40 38-91 24-138l-21-65c-8 31-25 59-48 82l0 0z m24-129c0-73-51-136-123-150-71-14-143 24-171 91-28 68-4 145 57 186 60 40 141 32 193-19 28-29 45-68 45-108l-1 0z m-30-341c17 54 28 109 33 165l30-29-9-9c-6-6-6-15 0-21l33-34c-26-27-55-51-87-72l0 0z m107 94l-22 22 17 17 20-20c-5-6-10-13-15-19l0 0z m33 44l-27 27c-3 2-7 4-11 4-4 0-7-2-10-4l-8-9-48 48c1 12 1 24 1 34l66 206c17 56 7 117-28 165-35 47-90 75-149 75l-3 0c-41-1-78-22-100-57-14-23-39-38-67-38-27 0-53 15-67 38-21 35-59 56-100 57l-3 0c-59 0-114-28-149-76-35-47-45-108-28-164l66-206c1-83 14-165 39-244-162 97-249 283-220 470 30 187 170 337 354 379 185 43 376-31 484-186 108-156 111-361 7-519l1 0z" horiz-adv-x="1000" />

<glyph glyph-name="services-hygiene" unicode="&#xe840;" d="M966 485c-5 14-9 27-13 39-5 13-9 24-15 35 0 2-1 3-1 5-6 10-11 21-17 31-1 2-2 5-3 7-6 10-12 20-19 29-1 2-2 3-2 4-7 10-14 19-21 28-1 1-1 2-2 2-8 10-16 19-24 28l-3 3c-72 77-168 129-272 147-14 2-26 4-39 5l-6 1c-12 0-25 1-37 1-13 0-25-1-37-1l-7-1c-12-1-24-3-37-5-105-18-201-70-274-147 0-1-1-2-2-3-8-9-17-18-24-28-1 0-2-1-2-2-8-9-14-18-21-28-1-1-2-2-2-4-7-9-13-19-19-29-1-3-2-5-4-7-5-10-11-21-16-31 0-2-1-4-2-5-5-11-9-22-14-34-5-13-9-26-12-39 0 0-3-10-3-10-52-203 26-417 195-536 169-120 393-120 562 0 169 119 246 333 195 536l-2 9z m-199 193c-5 5-12 7-18 4-20 4-40 6-60 6-116 0-153-6-186-132-4-17-8-34-11-53-3 19-7 36-11 53-33 126-70 132-186 132-61 0-145-12-169-113-8-32-15-68-21-104l-17 0c-13 0-25 5-35 14 3 12 7 23 11 34 1 1 1 3 2 5 4 10 9 20 13 30 1 2 2 3 2 4 5 9 10 18 15 27 1 2 1 3 2 5 6 9 12 18 18 27 1 2 2 3 4 5 6 9 12 18 19 26 1 1 1 1 1 2 8 9 15 17 23 25l1 1c9 9 17 17 26 25 64 57 143 95 227 109 12 2 23 4 35 5l6 0c11 1 22 2 34 2 11 0 23-1 34-2l6 0c11-1 23-3 34-4 85-15 163-53 228-110 9-8 17-16 26-24l1-2c8-8 15-16 22-25 1-1 1-1 2-1 7-9 13-18 19-27 2-1 3-3 4-5 6-9 12-18 17-27 1-2 2-3 3-5 5-9 10-18 14-27l2-4c5-10 10-20 14-30 0-2 1-4 2-5 4-11 8-22 11-34-10-9-23-14-36-14l-16 0c-6 36-14 72-21 105-9 48-44 88-91 102z m-601-161c7 1 13 6 15 13 1 7-2 15-9 18-6 4-14 3-19-2 2 7 3 15 5 22 1 5 3 11 5 16 0 0 1 0 1-1 4 0 9 2 12 5 3 4 5 8 5 12 0 4-2 8-5 11 3 4 6 7 9 11 3-3 8-5 12-5 9 0 16 7 16 17 0 2 0 4-1 6 23 10 48 15 72 15 3-3 7-5 11-5 4 0 8 2 11 5 18 0 33-1 46-2 2-2 6-3 9-3 2 0 4 1 6 2 7-1 13-2 19-4-6-3-9-9-9-14 0-10 8-17 17-17 9 0 16 7 16 17 6-5 11-11 14-18-8 0-14-7-14-16 0-9 7-17 16-17 4 0 8 2 11 5 4-12 8-25 12-41 23-89 26-285 27-343 0-40-39-45-103-49-9-1-17-2-26-2-31-4-63-4-95-1l-13 1c-71 5-125 12-124 51 5 108 16 216 34 322 3-6 10-10 17-9z m381 71c3-3 7-4 11-5 9 1 16 8 16 17 0 9-6 16-15 17 4 6 9 13 15 18 0-11 7-18 16-18 9 0 17 7 17 17 0 6-4 11-9 14 26 6 53 8 80 7 3-3 7-5 11-5 4 0 7 2 10 5 25 0 50-5 73-14-1-3-2-5-2-7 0-7 4-13 11-16 6-2 13-1 17 4 4-4 7-7 9-11-2-3-4-7-4-11 0-9 8-16 17-16 0 0 1 0 1 0 2-5 4-11 5-16 2-7 3-15 5-22-3 3-7 4-11 4-9 0-16-6-17-14-1-8 4-16 12-18 7-3 16 1 19 9 18-107 30-215 35-323 1-38-53-45-125-51l-13-1c-31-3-63-3-94 1-9 1-18 1-27 2-63 4-102 10-102 50 0 57 4 253 26 342 5 16 9 29 13 41z m-413-530c-87 110-120 254-90 392 13-8 29-12 44-12l15 0c-11-83-19-175-21-233-2-74 89-80 155-85l13-1c20-1 35-2 50-2 16 0 30 0 50 2 8 1 17 2 25 2 43 3 92 7 117 35 25-28 74-32 116-35 9 0 17-1 26-2 19-2 34-2 49-2 15 0 31 1 51 2l13 1c66 5 157 11 155 85-2 58-10 150-21 233l14 0c16 0 31 4 45 12 30-138-3-282-90-392-87-111-219-175-358-175-139 0-271 64-358 175z m145 573l0 3c0-7-4-13-10-16-6-3-13-1-18 4-5 4-6 12-4 18 3 6 9 10 15 10 10 0 17-7 17-16l0-3z m-49-47c-10 0-17 7-17 16 0 9 7 17 17 17 9 0 17-8 17-17 0-9-8-16-17-16z m81 18l0-2c0-9-7-16-16-16-9 0-16 7-16 16 0 9 7 17 16 17 4 0 9-2 12-5 3-3 4-7 4-12l0 2z m-43-35l0 2c0-7-4-13-10-16-6-2-13-1-18 4-5 5-6 12-3 18 2 6 8 10 15 10 9 0 16-7 16-16l0-2z m99 18c-6-3-13-1-18 4-5 4-6 11-3 18 2 6 8 10 15 10 9 0 16-8 16-17 0-6-4-13-10-15z m-164-34c-6-2-13-1-18 4-4 5-6 12-3 18 2 7 8 11 15 11 4 0 8-2 12-5 3-3 4-8 4-12 0-7-4-13-10-16z m128 69c-9 0-16 7-16 16 0 10 7 17 16 17 5 0 9-2 12-5 3-3 5-7 5-12 0-9-8-16-17-16z m230-103c-9 0-17 7-17 16 0 10 8 17 17 17 4 0 8-2 11-5 3-3 5-7 5-12 0-9-7-16-16-16z m-151 51l0-1c0-9-7-17-16-17-9 0-17 8-17 17 0 9 8 17 17 17 9 0 16-8 16-17l0 1z m35-34l0-1c0-6-4-12-10-15-7-3-14-1-18 4-5 4-6 11-4 18 3 6 9 10 15 10 9 0 17-7 17-17l0 1z m178 50c-9 0-16 7-16 16 0 9 7 17 16 17 4 0 9-2 12-5 3-3 4-7 4-12 0-9-7-16-16-16z m72 1c-6-3-13-1-18 4-5 4-6 11-3 18 2 6 8 10 15 10 9 0 16-8 16-17 0-6-4-13-10-15z m33 33c-6-3-13-1-18 4-5 4-6 12-4 18 3 6 9 10 16 10 9 0 16-7 16-16 0-7-4-13-10-16z m26-34c-9 0-16 7-16 16 0 9 7 17 16 17 9 0 16-8 16-17 0-9-7-16-16-16z m-164-34c-9 0-16 8-16 17 0 9 7 17 16 17 5 0 9-2 12-5 3-3 5-8 5-12 0-9-8-17-17-17z m148 19l0 0c0-10-8-17-17-17-9 0-16 7-16 17 0 9 7 16 16 16 5 0 9-1 12-5 3-3 5-7 5-11l0 0z m-66-2l0 0c0-9-7-17-16-17-9 0-17 8-17 17 0 9 8 17 17 17 9 0 16-8 16-17l0 0z" horiz-adv-x="1000" />
</font>
</defs>
</svg>
